<?xml version="1.0" standalone="no"?>
<!DOCTYPE svg PUBLIC "-//W3C//DTD SVG 1.1//EN" "http://www.w3.org/Graphics/SVG/1.1/DTD/svg11.dtd" >
<svg xmlns="http://www.w3.org/2000/svg" xmlns:xlink="http://www.w3.org/1999/xlink" version="1.1">
<metadata>
Created by FontForge 20200427 at Sun Dec 22 20:59:32 2013
 By www
Copyright 1990-2003 Bitstream Inc. All rights reserved.
</metadata>
<defs>
<font id="Lapidary333W03-Bd" horiz-adv-x="1024" >
  <font-face 
    font-family="Lapidary333W03-Bd"
    font-weight="700"
    font-stretch="normal"
    units-per-em="2048"
    panose-1="2 2 8 2 6 5 5 2 2 3"
    ascent="1556"
    descent="-492"
    x-height="768"
    cap-height="1194"
    bbox="-342 -659 2374 1786"
    underline-thickness="50"
    underline-position="-361"
    unicode-range="U+0020-F002"
  />
<missing-glyph horiz-adv-x="1229" 
d="M102 -362v1806h1024v-1806h-1024zM217 -248h795v1577h-795v-1577z" />
    <glyph glyph-name=".notdef" horiz-adv-x="1229" 
d="M102 -362v1806h1024v-1806h-1024zM217 -248h795v1577h-795v-1577z" />
    <glyph glyph-name="glyph1" horiz-adv-x="0" 
 />
    <glyph glyph-name="glyph2" horiz-adv-x="510" 
 />
    <glyph glyph-name="space" unicode=" " horiz-adv-x="510" 
 />
    <glyph glyph-name="exclam" unicode="!" horiz-adv-x="627" 
d="M317 365q-51 243 -79 492.5t-31 260.5q-6 22 -26 33.5t-50 11.5q-3 0 -10.5 -1t-11.5 -1l-3 33q71 14 129 21.5t105 7.5q65 0 93 -19.5t28 -64.5q0 -47 -47 -304t-66 -475zM463 117q0 -58 -41 -100t-98 -42q-58 0 -99 41.5t-41 100.5q0 57 41.5 98t98.5 41q56 0 97.5 -41
t41.5 -98z" />
    <glyph glyph-name="quotedbl" unicode="&#x22;" horiz-adv-x="694" 
d="M496 856l-74 458q-1 8 -1.5 16.5t-0.5 23.5q0 51 25.5 79.5t70.5 28.5t70.5 -28t25.5 -78q0 -13 -3 -36q-1 -4 -1 -5l-73 -459h-39zM160 856l-74 459q-1 7 -1.5 15.5t-0.5 23.5q0 52 24.5 80t69.5 28q47 0 71.5 -27.5t24.5 -80.5q0 -16 -0.5 -24.5t-1.5 -15.5l-73 -458
h-39z" />
    <glyph glyph-name="numbersign" unicode="#" horiz-adv-x="1575" 
d="M977 858h-275l-94 -264h275zM920 1460l-156 -436h268l156 436h182l-156 -436h291l-59 -166h-291l-92 -262h307l-59 -168h-307l-154 -434h-184l155 434h-268l-154 -434h-184l156 434h-301l59 168h301l92 262h-319l61 166h318l155 436h183z" />
    <glyph glyph-name="dollar" unicode="$" horiz-adv-x="1020" 
d="M467 766v313q-64 -13 -99.5 -50t-35.5 -89q0 -51 34 -95t101 -79zM807 866h-31q-15 82 -76 137t-157 76v-362q194 -106 262.5 -185.5t68.5 -185.5q0 -128 -88 -210.5t-243 -100.5v-166h-76v166q-60 7 -128.5 23t-80.5 16q-22 -1 -34 -8t-18 -23h-30v309h31
q15 -111 84 -179.5t176 -77.5v386q-152 82 -219.5 166.5t-67.5 192.5q0 120 75.5 199t211.5 102v98h76v-100q37 -6 97 -17.5t77 -11.5q23 0 36.5 5t22.5 18h31v-267zM543 436v-340q71 14 113 56.5t42 101.5q0 51 -34.5 92t-120.5 90z" />
    <glyph glyph-name="percent" unicode="%" horiz-adv-x="1626" 
d="M1243 43q83 0 122.5 71.5t39.5 223.5q0 153 -39 224t-123 71t-123 -71t-39 -224q0 -152 39.5 -223.5t122.5 -71.5zM1243 -25q-150 0 -245 101t-95 262q0 162 94 261t246 99q153 0 247.5 -99t94.5 -261q0 -161 -95 -262t-247 -101zM1167 1200h115l-827 -1225h-115z
M381 477q-151 0 -245.5 100t-94.5 261q0 162 94 262t246 100t247 -100t95 -262t-95 -261.5t-247 -99.5zM381 545q83 0 122.5 70.5t39.5 222.5q0 153 -39 224t-123 71t-123 -71t-39 -224q0 -152 39.5 -222.5t122.5 -70.5z" />
    <glyph glyph-name="ampersand" unicode="&#x26;" horiz-adv-x="1413" 
d="M594 774q71 34 102 73t31 93q0 84 -55.5 149.5t-124.5 65.5q-51 0 -83 -33.5t-32 -87.5q0 -55 34.5 -112t127.5 -148zM807 188q-59 77 -136.5 166.5t-236.5 259.5q-63 -45 -95 -101.5t-32 -125.5q0 -115 84.5 -196.5t202.5 -81.5q50 0 102.5 19.5t110.5 59.5zM868 123
q-87 -76 -186.5 -113t-214.5 -37q-182 0 -296 91t-114 233q0 110 81 203.5t241 169.5q-76 73 -115 143t-39 135q0 123 101.5 199t269.5 76q146 0 240 -67t94 -167q0 -93 -66 -156.5t-209 -109.5q66 -61 138.5 -143.5t160.5 -194.5q41 65 60.5 119.5t19.5 99.5q0 44 -19.5 68
t-66.5 35v34h344v-34q-93 -29 -196 -224q-53 -100 -88 -155q88 -107 153.5 -153t126.5 -46q25 0 54.5 8.5t64.5 26.5l27 -33q-71 -82 -140 -121t-143 -39q-80 0 -147 36t-136 116z" />
    <glyph glyph-name="quotesingle" unicode="'" horiz-adv-x="358" 
d="M160 856l-74 459q-1 7 -1.5 15.5t-0.5 23.5q0 52 24.5 80t69.5 28q47 0 71.5 -27.5t24.5 -80.5q0 -16 -0.5 -24.5t-1.5 -15.5l-73 -458h-39z" />
    <glyph glyph-name="parenleft" unicode="(" horiz-adv-x="682" 
d="M676 -659q-251 131 -395 381.5t-144 558.5t144 559.5t395 382.5l18 -31q-154 -151 -231.5 -379.5t-77.5 -531.5t77.5 -531t231.5 -379z" />
    <glyph glyph-name="parenright" unicode=")" horiz-adv-x="682" 
d="M8 1223q251 -131 395 -382.5t144 -559.5t-143.5 -558.5t-395.5 -381.5l-18 30q154 151 231.5 379t77.5 531t-77.5 531.5t-231.5 379.5z" />
    <glyph glyph-name="asterisk" unicode="*" 
d="M496 818q-5 86 -50 181t-45 121q0 46 30.5 74.5t80.5 28.5t80.5 -29t30.5 -76q0 -20 -44.5 -115t-52.5 -184q41 23 75 56.5t67 82.5q4 7 11 17q61 90 122 90q41 0 72.5 -37t31.5 -84q0 -50 -29.5 -73.5t-119.5 -30.5q-80 -7 -126.5 -18.5t-84.5 -30.5q38 -23 86.5 -35.5
t128.5 -18.5q82 -5 113.5 -29t31.5 -77q0 -48 -33 -83.5t-77 -35.5q-56 0 -119 94l-8 12q-39 57 -71 90.5t-67 52.5q4 -84 49.5 -182t45.5 -122q0 -45 -31 -73t-82 -28t-80 27.5t-29 75.5q0 23 45.5 119.5t51.5 180.5q-40 -23 -75.5 -58.5t-68.5 -84.5q-4 -6 -11 -17
q-56 -87 -122 -87q-40 0 -72 37.5t-32 83.5q0 43 31 70.5t83 31.5q10 1 29 2q144 10 217 49q-88 47 -253 56h-1q-48 3 -77 31t-29 71q0 50 33 85.5t79 35.5q55 0 111 -85l14 -21q38 -53 70.5 -86t69.5 -55z" />
    <glyph glyph-name="plus" unicode="+" horiz-adv-x="1706" 
d="M938 1221v-527h514v-166h-514v-528h-170v528h-514v166h514v527h170z" />
    <glyph glyph-name="comma" unicode="," horiz-adv-x="510" 
d="M94 -305q84 16 137.5 79.5t53.5 145.5q0 29 -10.5 47t-29.5 23q-5 1 -18 4q-139 28 -139 131q0 63 39 101t102 38q89 0 145 -65t56 -168q0 -148 -94 -251.5t-242 -117.5v33z" />
    <glyph glyph-name="hyphen" unicode="-" horiz-adv-x="606" 
d="M63 279v204h486v-204h-486z" />
    <glyph glyph-name="period" unicode="." horiz-adv-x="510" 
d="M115 111q0 57 40.5 98t98.5 41t98.5 -40.5t40.5 -98.5q0 -57 -41 -98.5t-98 -41.5t-98 41.5t-41 98.5z" />
    <glyph glyph-name="slash" unicode="/" horiz-adv-x="569" 
d="M618 1223l-624 -1413h-115l617 1413h122z" />
    <glyph glyph-name="zero" unicode="0" horiz-adv-x="1020" 
d="M510 43q94 0 137 128.5t43 416.5q0 287 -43 416t-137 129q-95 0 -138.5 -130t-43.5 -415t43.5 -415t138.5 -130zM510 -25q-202 0 -317 162.5t-115 450.5q0 287 115 449.5t317 162.5t316 -162t114 -450t-114 -450.5t-316 -162.5z" />
    <glyph glyph-name="one" unicode="1" horiz-adv-x="1020" 
d="M244 0v33q83 6 118 51t35 149v687q0 36 -12 49.5t-41 13.5t-52 -2.5t-44 -7.5v33q88 36 172.5 85t163.5 109h34v-967q0 -104 35 -149t119 -51v-33q-65 3 -131.5 4.5t-132.5 1.5q-67 0 -133 -1.5t-131 -4.5z" />
    <glyph glyph-name="two" unicode="2" horiz-adv-x="1020" 
d="M86 0v80q69 36 140.5 98.5t154.5 159.5q131 153 183 264.5t52 226.5q0 106 -54.5 167t-149.5 61q-67 0 -122 -41.5t-100 -126.5l-43 14q40 137 138 217t225 80q140 0 235 -89.5t95 -219.5q0 -141 -116 -302.5t-394 -402.5h553v-186h-797z" />
    <glyph glyph-name="three" unicode="3" horiz-adv-x="1020" 
d="M143 182q61 -57 124 -86.5t124 -29.5q110 0 182 71t72 178q0 123 -88.5 192.5t-251.5 74.5v61q129 12 208 87.5t79 184.5q0 82 -53.5 133.5t-139.5 51.5q-60 0 -108 -27.5t-86 -83.5l-47 33q54 90 132 134t183 44q147 0 235.5 -71t88.5 -189q0 -77 -44 -142.5
t-132 -119.5q125 -48 188 -127.5t63 -190.5q0 -165 -118 -275t-297 -110q-101 0 -191 40.5t-168 119.5z" />
    <glyph glyph-name="four" unicode="4" horiz-adv-x="1020" 
d="M504 0v301h-404v86l570 813h53v-766h203v-133h-203v-301h-219zM209 434h295v422z" />
    <glyph glyph-name="five" unicode="5" horiz-adv-x="1020" 
d="M133 170q69 -52 128.5 -76t115.5 -24q120 0 194 64t74 167q0 108 -86 173t-231 65q-20 0 -44.5 -1.5t-56.5 -4.5v643h627v-187h-551v-282h82q246 0 375 -94t129 -273q0 -64 -27 -125t-76 -109q-63 -61 -146.5 -95t-174.5 -34q-104 0 -196 36t-173 108z" />
    <glyph glyph-name="six" unicode="6" horiz-adv-x="1020" 
d="M336 604q67 71 136 105t142 34q139 0 231.5 -98t92.5 -244q0 -179 -117 -302.5t-286 -123.5q-186 0 -310.5 150t-124.5 377q0 163 69.5 307.5t197.5 247.5q89 70 187.5 105.5t205.5 35.5h33l-1 -43q-203 -10 -321 -152.5t-135 -398.5zM360 391q0 -155 51.5 -251.5
t131.5 -96.5q72 0 115.5 65.5t43.5 176.5q0 157 -50.5 252.5t-133.5 95.5q-73 0 -115.5 -64.5t-42.5 -177.5z" />
    <glyph glyph-name="seven" unicode="7" horiz-adv-x="1020" 
d="M217 1176h729l-407 -1176h-316l584 1006h-485q-83 0 -133 -25t-78 -80h-35l63 307h33q5 -17 16 -24.5t29 -7.5z" />
    <glyph glyph-name="eight" unicode="8" horiz-adv-x="1020" 
d="M625 729q55 46 79.5 93.5t24.5 107.5q0 93 -50 148t-134 55q-69 0 -117.5 -46t-48.5 -110q0 -63 54 -119t192 -129zM395 573q-71 -55 -105 -119.5t-34 -142.5q0 -121 66 -195.5t172 -74.5q98 0 161.5 55t63.5 137q0 91 -78.5 173.5t-245.5 166.5zM334 616
q-93 62 -135.5 127t-42.5 146q0 136 103 223.5t265 87.5t254 -69.5t92 -190.5q0 -77 -43 -135.5t-139 -112.5q124 -82 181 -171t57 -204q0 -153 -116.5 -247.5t-309.5 -94.5q-181 0 -285 84t-104 230q0 97 57 181.5t166 145.5z" />
    <glyph glyph-name="nine" unicode="9" horiz-adv-x="1020" 
d="M682 571q-67 -71 -134.5 -105t-141.5 -34q-139 0 -232.5 98.5t-93.5 243.5q0 180 117 303t286 123q186 0 310.5 -149.5t124.5 -376.5q0 -164 -69 -308.5t-196 -246.5q-89 -70 -188.5 -106t-206.5 -36h-33v43q203 10 321.5 153t135.5 398zM659 784q0 155 -52 252t-132 97
q-72 0 -115 -65.5t-43 -176.5q0 -158 51 -253t134 -95q73 0 115 64t42 177z" />
    <glyph glyph-name="colon" unicode=":" horiz-adv-x="510" 
d="M115 651q0 58 40.5 100t98.5 42t98.5 -41.5t40.5 -100.5q0 -57 -41 -98t-98 -41t-98 41t-41 98zM115 111q0 57 40.5 98t98.5 41t98.5 -40.5t40.5 -98.5q0 -57 -41 -98.5t-98 -41.5t-98 41.5t-41 98.5z" />
    <glyph glyph-name="semicolon" unicode=";" horiz-adv-x="510" 
d="M94 -305q84 16 137.5 79.5t53.5 145.5q0 29 -10.5 47t-29.5 23q-5 1 -18 4q-139 28 -139 131q0 63 39 101t102 38q89 0 145 -65t56 -168q0 -148 -94 -251.5t-242 -117.5v33zM104 651q0 58 41 100t99 42t98.5 -41.5t40.5 -100.5q0 -57 -41 -98t-98 -41t-98.5 41t-41.5 98z
" />
    <glyph glyph-name="less" unicode="&#x3c;" horiz-adv-x="1706" 
d="M1442 991l-934 -381l934 -381v-182l-1178 483v160l1178 486v-185z" />
    <glyph glyph-name="equal" unicode="=" horiz-adv-x="1706" 
d="M1452 487v-165h-1198v165h1198zM1452 901v-168h-1198v168h1198z" />
    <glyph glyph-name="greater" unicode="&#x3e;" horiz-adv-x="1706" 
d="M1442 690v-160l-1178 -483v182l934 381l-934 381v185z" />
    <glyph glyph-name="question" unicode="?" horiz-adv-x="692" 
d="M145 111q0 57 41 98t99 41t98.5 -40.5t40.5 -98.5q0 -57 -41 -98.5t-98 -41.5t-98.5 41.5t-41.5 98.5zM274 358q-14 24 -21 45t-7 39q0 32 16.5 65.5t63.5 88.5q57 68 78.5 118t21.5 107q0 96 -58.5 161t-142.5 65q-41 0 -79.5 -21t-67.5 -59l-31 24q33 109 109.5 169.5
t179.5 60.5q127 0 213 -94.5t86 -235.5q0 -156 -207 -333q-35 -30 -53 -46q-38 -33 -56 -61t-18 -54q0 -6 3 -18q1 -3 1 -4z" />
    <glyph glyph-name="at" unicode="@" horiz-adv-x="2019" 
d="M1305 823l51 170h172l-172 -616l-2 -6q-15 -59 -15 -90q0 -49 22 -76t60 -27q34 0 84 22t92 56q110 88 169 222t59 296q0 279 -191 450t-504 171q-173 0 -328.5 -65t-273.5 -185q-122 -125 -183.5 -286t-61.5 -357q0 -172 59.5 -306.5t179.5 -234.5q106 -88 247 -135
t302 -47q166 0 321 51.5t304 157.5l37 -47q-148 -111 -315 -167.5t-347 -56.5q-188 0 -347 46.5t-275 134.5q-151 113 -230.5 277t-79.5 362q0 203 86 381t250 313q135 111 297.5 168t345.5 57q348 0 557 -188.5t209 -501.5q0 -159 -59 -297.5t-168 -237.5q-62 -54 -129 -82
t-133 -28q-98 0 -152.5 52.5t-60.5 152.5q-64 -105 -137.5 -154t-165.5 -49q-134 0 -212.5 92t-78.5 248q0 112 49 219t141 195q68 65 147.5 99t161.5 34q90 0 145.5 -47.5t72.5 -139.5zM1249 772q0 83 -37.5 132.5t-99.5 49.5q-64 0 -117 -45t-106 -147
q-57 -107 -87 -209.5t-30 -185.5t36.5 -133t94.5 -50q62 0 115.5 41.5t107.5 132.5q56 96 89.5 210t33.5 204z" />
    <glyph glyph-name="A" unicode="A" horiz-adv-x="1147" 
d="M299 492h371l-191 483zM203 234q-3 -7 -7 -17q-28 -73 -28 -111q0 -26 21 -45t60 -28v-33q-40 3 -81.5 4.5t-83.5 1.5q-41 0 -80.5 -1.5t-76.5 -4.5l-1 33q62 6 109 54.5t84 145.5l370 990h160l387 -990q39 -98 86 -146t109 -54l-1 -33q-63 3 -127.5 4.5t-129.5 1.5
t-128.5 -1.5t-127.5 -4.5v33q39 9 60.5 28t21.5 45q0 23 -7 51t-26 76l-66 166h-432z" />
    <glyph glyph-name="B" unicode="B" horiz-adv-x="1251" 
d="M74 0v33q83 6 118 51t35 149v728q0 104 -35 149t-118 51v33h614q208 0 318 -72t110 -207q0 -106 -70.5 -175t-211.5 -101q173 -27 267.5 -111t94.5 -211q0 -154 -123.5 -235.5t-357.5 -81.5h-641zM494 584v-367q0 -77 39 -109t133 -32q117 0 179 62t62 179
q0 126 -78.5 196.5t-218.5 70.5h-116zM494 1118v-459h112q112 0 174 60t62 168q0 114 -71 172.5t-210 58.5h-67z" />
    <glyph glyph-name="C" unicode="C" horiz-adv-x="1255" 
d="M1196 225q-99 -123 -229.5 -188.5t-278.5 -65.5q-108 0 -201 29t-174 88q-113 84 -174 211t-61 279q0 110 35 209.5t112 205.5q78 107 206.5 168.5t275.5 61.5q102 0 224 -39t140 -39q29 0 47.5 15.5t22.5 43.5h33v-426h-33q-29 167 -142 273t-260 106
q-166 0 -273.5 -144.5t-107.5 -373.5q0 -253 119 -401t320 -148q104 0 199.5 41.5t174.5 120.5z" />
    <glyph glyph-name="D" unicode="D" horiz-adv-x="1489" 
d="M74 0v33q83 6 118 51t35 149v728q0 104 -35 149t-118 51v33h616q333 0 527 -167.5t194 -451.5q0 -274 -179.5 -424.5t-508.5 -150.5h-649zM494 1120v-878q0 -99 39.5 -136.5t140.5 -37.5q213 0 333.5 136t120.5 378q0 248 -120.5 393t-327.5 145h-186z" />
    <glyph glyph-name="E" unicode="E" horiz-adv-x="1104" 
d="M974 1194l1 -260h-33q-20 98 -76.5 142t-160.5 44h-211v-479h176q95 0 145 36t55 107h33v-362h-33q-15 74 -61 107.5t-133 33.5h-182v-325q0 -91 41 -126.5t145 -35.5q119 0 186 48t115 167l33 -4l-27 -287q-162 2 -258 3t-180 1q-148 0 -457 -4h-18v33q83 6 118 51
t35 149v728q0 104 -35 149t-118 51v33q72 -1 160 -1.5t272 -0.5q188 0 286 0.5t182 1.5z" />
    <glyph glyph-name="F" unicode="F" horiz-adv-x="1034" 
d="M974 1194l1 -260h-33q-20 96 -76 141t-153 45h-219v-479h176q95 0 146 36.5t54 106.5h33v-362h-33q-15 74 -61 107.5t-133 33.5h-182v-330q0 -104 35 -149t118 -51v-33h-12q-192 4 -285 4q-53 0 -113 -1t-163 -3v33q83 6 118 51t35 149v728q0 104 -35 149t-118 51v33
q77 -1 168.5 -1.5t275.5 -0.5q188 0 282 0.5t174 1.5z" />
    <glyph glyph-name="G" unicode="G" horiz-adv-x="1356" 
d="M1175 854h-32q-34 128 -144.5 209.5t-248.5 81.5q-181 0 -285.5 -151t-104.5 -414q0 -259 99.5 -396t285.5 -137q97 0 137 35t40 123v117q0 80 -25.5 116.5t-87.5 46.5v33q44 -1 94 -1.5t152 -0.5q99 0 149.5 0.5t93.5 1.5v-33q-62 -11 -87 -50t-25 -132v-244
q-117 -43 -227 -65.5t-211 -22.5q-140 0 -253 37.5t-204 112.5q-103 85 -158 205.5t-55 259.5q0 159 60 287.5t175 216.5q88 66 190 99.5t214 33.5q94 0 212.5 -38t143.5 -38q30 0 47 11.5t23 35.5h32q-1 -30 -1 -64.5v-105.5v-104.5t1 -65.5z" />
    <glyph glyph-name="H" unicode="H" horiz-adv-x="1587" 
d="M494 563v-330q0 -104 35 -149t118 -51v-33q-70 3 -142 4.5t-145 1.5q-72 0 -143 -1.5t-143 -4.5v33q83 6 118 51t35 149v728q0 104 -35 149t-118 51v33q72 -3 143 -4.5t143 -1.5q73 0 145 1.5t142 4.5v-33q-83 -6 -118 -51t-35 -149v-322h600v322q0 104 -35 149t-119 51
v32q72 -2 143.5 -3.5t143.5 -1.5q73 0 145 1.5t141 4.5v-33q-83 -6 -118 -51t-35 -149v-728q0 -104 35 -149t118 -51v-33q-69 3 -141 4.5t-145 1.5q-72 0 -143.5 -1.5t-143.5 -3.5v32q84 6 119 51t35 149v330h-600z" />
    <glyph glyph-name="I" unicode="I" horiz-adv-x="721" 
d="M494 233q0 -104 35 -149t118 -51v-33q-70 3 -142 4.5t-145 1.5q-72 0 -143 -1.5t-143 -4.5v33q83 6 118 51t35 149v728q0 104 -35 149t-118 51v33q72 -3 143 -4.5t143 -1.5q73 0 145 1.5t142 4.5v-33q-83 -6 -118 -51t-35 -149v-728z" />
    <glyph glyph-name="J" unicode="J" horiz-adv-x="688" 
d="M494 -66q0 -192 -86 -292.5t-250 -100.5q-125 0 -205 61.5t-105 176.5l29 14q23 -59 70 -90t114 -31q92 0 129 56t37 204v1029q0 104 -35 149t-118 51v33q72 -3 143 -4.5t143 -1.5q73 0 145 1.5t142 4.5v-33q-83 -6 -118 -51t-35 -149v-1027z" />
    <glyph glyph-name="K" unicode="K" horiz-adv-x="1313" 
d="M494 651l303 275q46 41 75 84t29 67q0 36 -27.5 58.5t-76.5 25.5v33q41 -1 90.5 -1.5t146.5 -0.5q98 0 146 0.5t87 1.5v-33q-77 -4 -153.5 -48t-224.5 -185l-189 -180l484 -589l2 -2q97 -118 172 -124l-1 -33q-66 3 -134.5 4.5t-137.5 1.5q-67 0 -135 -1.5t-136 -4.5
l-1 33q37 6 57.5 22.5t20.5 40.5q0 17 -7 34.5t-19 32.5l-371 460v-390q0 -104 35 -149t118 -51v-33q-70 3 -142 4.5t-145 1.5q-72 0 -143 -1.5t-143 -4.5v33q83 6 118 51t35 149v728q0 104 -35 149t-118 51v33q72 -3 143 -4.5t143 -1.5q73 0 145 1.5t142 4.5v-33
q-83 -6 -118 -51t-35 -149v-310z" />
    <glyph glyph-name="L" unicode="L" horiz-adv-x="1034" 
d="M494 233q0 -87 40.5 -122t141.5 -35q105 0 188 62t133 177l31 -8l-33 -307h-18q-313 4 -461 4q-84 0 -179.5 -1t-262.5 -3v33q83 6 118 51t35 149v728q0 104 -35 149t-118 51v33q50 -1 109 -1.5t177 -0.5q119 0 178.5 0.5t108.5 1.5v-33q-83 -6 -118 -51t-35 -149v-728z
" />
    <glyph glyph-name="M" unicode="M" horiz-adv-x="1817" 
d="M10 0v33q90 3 142 66.5t74 197.5l131 772q-27 37 -70.5 60t-103.5 32l1 33q51 -3 103 -4.5t105 -1.5t106.5 1.5t104.5 4.5q83 -195 161.5 -398t154.5 -415l335 812q51 -2 100.5 -3.5t98.5 -1.5q48 0 95.5 1.5t92.5 4.5v-33q-60 0 -95.5 -41t-35.5 -112q0 -12 2 -28t5 -34
l96 -684q14 -102 58 -157.5t124 -71.5v-33q-68 3 -138.5 4.5t-141.5 1.5q-73 0 -145.5 -1.5t-145.5 -4.5v33q62 5 98.5 51.5t36.5 120.5q0 22 -1.5 42.5t-4.5 38.5l-99 697l-401 -983h-43q-125 336 -215 569.5t-168 423.5l-127 -723q-3 -15 -4.5 -31t-1.5 -40
q0 -74 40.5 -118.5t110.5 -47.5v-33q-52 3 -107 4.5t-110 1.5t-109 -1.5t-109 -4.5z" />
    <glyph glyph-name="N" unicode="N" horiz-adv-x="1421" 
d="M287 233q0 -104 35 -149t118 -51v-33q-47 3 -94.5 4.5t-95.5 1.5q-49 0 -97 -1.5t-95 -4.5l-1 33q84 6 119 51t35 149v801q-33 49 -77 81t-95 46v33q46 -3 90.5 -4.5t89.5 -1.5t89.5 1.5t88.5 4.5l742 -797v564q0 104 -35 149t-119 51l1 33q47 -3 94.5 -4.5t97.5 -1.5
q48 0 95.5 1.5t94.5 4.5v-33q-84 -6 -119 -51t-35 -149v-973h-34l-893 962v-717z" />
    <glyph glyph-name="O" unicode="O" horiz-adv-x="1436" 
d="M719 -29q-287 0 -464 173t-177 454t176.5 453t464.5 172q287 0 463 -172t176 -453t-176 -454t-463 -173zM362 598q0 -274 90.5 -416.5t264.5 -142.5t265 143t91 416q0 274 -91.5 417.5t-264.5 143.5q-174 0 -264.5 -143.5t-90.5 -417.5z" />
    <glyph glyph-name="P" unicode="P" horiz-adv-x="1118" 
d="M494 1118v-495l5 -1q56 -8 81 -8q115 0 175 63.5t60 184.5q0 128 -69.5 193t-206.5 65q-19 0 -28.5 -0.5t-16.5 -1.5zM647 1194q218 0 334.5 -84.5t116.5 -241.5q0 -150 -116.5 -244t-307.5 -94q-40 0 -85.5 4t-94.5 11v-312q0 -104 35 -149t118 -51v-33q-70 3 -142 4.5
t-145 1.5q-72 0 -143 -1.5t-143 -4.5v33q83 6 118 51t35 149v728q0 104 -35 149t-118 51v33h573z" />
    <glyph glyph-name="Q" unicode="Q" horiz-adv-x="1436" 
d="M362 592q0 -279 90.5 -423t264.5 -144t265 144.5t91 422.5q0 279 -90.5 423t-265.5 144t-265 -144t-90 -423zM932 0q159 -139 308 -288q30 -31 35 -35q56 -42 102 -59t96 -17q15 0 22.5 0.5t13.5 1.5v-35q-60 -12 -113.5 -18.5t-97.5 -6.5q-58 0 -114.5 10t-108.5 29
q-116 41 -295 214q-65 62 -100 93q-81 72 -223 129q-18 7 -26 10q-165 68 -259 219.5t-94 350.5q0 281 176.5 453t464.5 172q287 0 463 -172t176 -453q0 -224 -110.5 -379t-315.5 -219z" />
    <glyph glyph-name="R" unicode="R" horiz-adv-x="1290" 
d="M748 1194q163 0 262.5 -82.5t99.5 -214.5q0 -105 -62.5 -176t-179.5 -98q93 -78 211 -279q31 -52 47 -78q77 -123 122 -174.5t79 -59.5v-32h-309q-66 60 -157 233q-34 66 -54 101q-76 133 -134.5 186t-123.5 53h-55v-340q0 -104 35 -149t118 -51v-33q-70 3 -142 4.5
t-145 1.5q-72 0 -143 -1.5t-143 -4.5v33q83 6 118 51t35 149v728q0 104 -35 149t-118 51v33h674zM494 1118v-469h67q139 0 201.5 57t62.5 183q0 116 -63 172.5t-193 56.5h-75z" />
    <glyph glyph-name="S" unicode="S" 
d="M827 914l-34 -1q-20 102 -105 173t-184 71q-87 0 -141 -45t-54 -117q0 -108 229 -250q44 -27 69 -43q186 -121 239 -197.5t53 -180.5q0 -155 -114.5 -254t-292.5 -99q-68 0 -153.5 22.5t-105.5 22.5q-27 0 -41.5 -8t-19.5 -26h-33q1 16 3.5 76.5t2.5 97.5q0 39 -3 116
q-2 38 -3 58h33q18 -136 102.5 -213.5t214.5 -77.5q94 0 156 51t62 127q0 99 -206 231q-54 34 -83 54q-174 117 -224.5 196.5t-50.5 192.5q0 138 101.5 235t247.5 97q52 0 131.5 -18.5t105.5 -18.5q21 0 36 6.5t27 21.5h35q-1 -26 -1.5 -56.5t-0.5 -92.5t0.5 -93t1.5 -58z
" />
    <glyph glyph-name="T" unicode="T" horiz-adv-x="1139" 
d="M436 1118h-86q-141 0 -214.5 -48t-84.5 -146h-33v307h33q6 -19 29.5 -28t64.5 -9h846q41 0 64.5 9t29.5 28h33v-307h-33q-10 98 -83.5 146t-215.5 48h-86v-885q0 -104 35 -149t119 -51v-33q-70 3 -141.5 4.5t-143.5 1.5t-143 -1.5t-143 -4.5v33q83 6 118 51t35 149v885z
" />
    <glyph glyph-name="U" unicode="U" horiz-adv-x="1456" 
d="M453 360q0 -155 50.5 -222.5t164.5 -67.5q87 0 170.5 44t158.5 130v717q0 104 -35 149t-118 51v33q72 -3 143 -4.5t143 -1.5q73 0 145 1.5t142 4.5v-33q-83 -6 -118 -51t-35 -149v-728q0 -104 35 -149t118 -51v-33q-52 3 -104 4.5t-105 1.5q-54 0 -106.5 -1.5
t-103.5 -4.5l-1 150q-93 -91 -198.5 -135t-229.5 -44q-193 0 -288 101t-95 307v582q0 104 -35 149t-118 51v33q72 -3 143 -4.5t143 -1.5q73 0 145 1.5t142 4.5v-33q-83 -6 -118 -51t-35 -149v-601z" />
    <glyph glyph-name="V" unicode="V" horiz-adv-x="1063" 
d="M126 961q-38 97 -84.5 145t-107.5 55v33q63 -3 127.5 -4.5t127.5 -1.5q65 0 128.5 1.5t127.5 4.5v-33q-39 -9 -60 -28t-21 -46q0 -23 7.5 -53t24.5 -73l238 -586l197 527l3 8q39 108 39 157q0 33 -28.5 58.5t-79.5 35.5v33q46 -3 90.5 -4.5t89.5 -1.5q46 0 91.5 1.5
t88.5 4.5v-33q-62 -6 -108.5 -54.5t-83.5 -145.5l-375 -979h-43z" />
    <glyph glyph-name="W" unicode="W" horiz-adv-x="1698" 
d="M125 961q-33 89 -80.5 140.5t-103.5 59.5v33q61 -3 122 -4.5t123 -1.5q63 0 125.5 1.5t122.5 4.5v-33q-37 -8 -56.5 -26t-19.5 -45q0 -18 9.5 -52.5t25.5 -76.5l215 -545l207 600l-8 20q-19 51 -56 81t-98 44l1 33q60 -3 121.5 -4.5t123.5 -1.5q63 0 125 1.5t122 4.5
l1 -33q-37 -7 -55.5 -25.5t-18.5 -45.5q0 -18 8.5 -49.5t26.5 -79.5l209 -549l170 489q3 10 11 31q32 89 32 135q0 33 -29 58.5t-80 35.5l1 33q45 -3 89.5 -4.5t87.5 -1.5q44 0 85.5 1.5t80.5 4.5v-33q-58 -7 -102.5 -56.5t-77.5 -143.5l-346 -996h-35l-344 932l-330 -932
h-38z" />
    <glyph glyph-name="X" unicode="X" horiz-adv-x="1241" 
d="M403 270q-50 -63 -70 -98t-20 -59q0 -36 26 -55.5t78 -24.5v-33q-91 3 -136 3.5t-84 0.5q-40 0 -85 -0.5t-136 -3.5l-1 33q74 4 134.5 43t132.5 129l270 346l-340 485q-45 64 -85.5 93t-86.5 33v31q69 -2 137 -3.5t137 -1.5t137.5 1.5t134.5 4.5l1 -33q-42 -6 -61 -23
t-19 -46q0 -15 5.5 -29t16.5 -31l189 -274l131 168q90 117 90 155q0 36 -26.5 56t-77.5 24v33q37 -1 81 -1.5t132 -0.5q87 0 130.5 0.5t79.5 1.5l1 -33q-74 -4 -134.5 -43t-132.5 -129l-229 -293l375 -536q44 -65 84.5 -94.5t86.5 -32.5v-33q-66 3 -134.5 4.5t-137.5 1.5
t-137 -1.5t-137 -4.5v33q41 6 60.5 23.5t19.5 47.5q0 15 -5.5 29t-17.5 31l-217 309z" />
    <glyph glyph-name="Y" unicode="Y" horiz-adv-x="1090" 
d="M681 233q0 -104 35 -149t119 -51l-1 -33q-69 3 -141 4.5t-145 1.5q-72 0 -143.5 -1.5t-142.5 -4.5l-1 33q84 6 119 51t35 149v347l-312 456q-40 61 -82 91.5t-89 33.5v33q68 -3 136 -4.5t136 -1.5t134 1.5t130 3.5v-32q-43 -8 -62.5 -22.5t-19.5 -38.5q0 -15 10 -38
t29 -52l209 -310l159 225q8 11 20 28q73 101 73 128q0 36 -26 55.5t-78 24.5l-1 33h7q120 -4 176 -4q38 0 80.5 1t117.5 3v-33q-57 -4 -100 -31t-88 -90l-293 -407v-400z" />
    <glyph glyph-name="Z" unicode="Z" horiz-adv-x="1251" 
d="M39 0v39l819 1089h-405q-144 0 -218.5 -51t-107.5 -170h-33l31 287q90 -1 197.5 -1.5t324.5 -0.5q221 0 333 0.5t207 1.5l1 -35l-807 -1083h420q158 0 247.5 54.5t147.5 184.5h33l-50 -315q-211 2 -329 3t-221 1q-185 0 -572 -4h-18z" />
    <glyph glyph-name="bracketleft" unicode="[" horiz-adv-x="778" 
d="M227 1194h545v-76h-303v-1612h303v-75h-545v1763z" />
    <glyph glyph-name="backslash" unicode="\" horiz-adv-x="569" 
d="M575 -190l-622 1413h121l618 -1413h-117z" />
    <glyph glyph-name="bracketright" unicode="]" horiz-adv-x="778" 
d="M551 -569h-547v75h303v1612h-303v76h547v-1763z" />
    <glyph glyph-name="asciicircum" unicode="^" horiz-adv-x="2048" 
d="M1130 1462l502 -565h-104l-506 397l-506 -397h-104l503 565h215z" />
    <glyph glyph-name="underscore" unicode="_" 
d="M1024 -311v-172h-1024v172h1024z" />
    <glyph glyph-name="grave" unicode="`" 
d="M688 903h-74l-301 182q-49 32 -66.5 53.5t-17.5 47.5q0 32 22.5 55t53.5 23q24 0 52 -16.5t55 -45.5z" />
    <glyph glyph-name="a" unicode="a" horiz-adv-x="934" 
d="M549 90q-53 -56 -118 -85.5t-136 -29.5q-106 0 -165.5 55t-59.5 150q0 76 49 124t162 81q4 1 19 5q128 31 249 79v45q0 73 -48.5 112.5t-140.5 39.5q-65 0 -121 -32.5t-94 -92.5l-30 16q44 117 128.5 176.5t207.5 59.5q172 0 248.5 -83.5t76.5 -273.5v-307
q0 -33 12 -51.5t33 -18.5q20 0 35.5 16.5t24.5 45.5l28 -12q-17 -67 -63.5 -102.5t-118.5 -35.5q-76 0 -120 29.5t-58 89.5zM549 152v262q-123 -37 -176.5 -88.5t-53.5 -130.5q0 -55 28.5 -88t74.5 -33q30 0 62.5 20t64.5 58z" />
    <glyph glyph-name="b" unicode="b" horiz-adv-x="1096" 
d="M135 1042q0 65 -25.5 95t-97.5 51v30q86 2 173 7.5t177 15.5v-575q68 64 141.5 95.5t160.5 31.5q161 0 264.5 -106t103.5 -273q0 -199 -138.5 -321t-369.5 -122q-78 0 -269 23q-79 10 -119 14zM362 592v-406q0 -86 32.5 -120.5t109.5 -34.5q128 0 205 96.5t77 259.5
q0 141 -62 223t-169 82q-59 0 -107.5 -25t-85.5 -75z" />
    <glyph glyph-name="c" unicode="c" horiz-adv-x="930" 
d="M877 203q-64 -110 -167.5 -171t-224.5 -61q-183 0 -301 113.5t-118 288.5q0 185 127.5 302.5t330.5 117.5q66 0 144 -14.5t92 -14.5q23 0 36.5 6.5t22.5 22.5h35v-58q0 -56 2 -109t6 -104h-33q-26 97 -104.5 160t-169.5 63q-108 0 -176 -91.5t-68 -239.5
q0 -146 77.5 -238t197.5 -92q77 0 144 34.5t122 102.5z" />
    <glyph glyph-name="d" unicode="d" horiz-adv-x="1118" 
d="M725 645q-53 43 -105 64.5t-100 21.5q-97 0 -153 -83t-56 -228q0 -166 79 -269.5t202 -103.5q68 0 100.5 39.5t32.5 122.5v436zM727 1042q0 69 -39 100t-151 46v31h55q107 0 196.5 5.5t165.5 16.5v-1067q0 -63 26.5 -94t94.5 -49v-33h-483q-254 0 -391.5 102.5
t-137.5 290.5q0 178 111.5 290t288.5 112q54 0 116 -16t148 -52v317z" />
    <glyph glyph-name="e" unicode="e" horiz-adv-x="901" 
d="M305 502h311q-1 106 -46 172.5t-113 66.5q-65 0 -106 -64.5t-46 -174.5zM862 229q-66 -128 -165 -193t-230 -65q-169 0 -286.5 118.5t-117.5 289.5q0 176 120.5 295t297.5 119q157 0 259.5 -92t117.5 -246h-553v-6q0 -174 71 -268.5t202 -94.5q71 0 136 40.5t117 119.5z
" />
    <glyph glyph-name="f" unicode="f" horiz-adv-x="606" 
d="M377 786h147v-65h-147v-547q0 -64 25 -93t98 -50l-1 -33q-68 3 -136.5 4.5t-137.5 1.5q-36 0 -77.5 -1t-116.5 -3v31q69 21 94 51.5t25 93.5v545h-105v47q52 4 76.5 30.5t38.5 106.5q27 166 120 252t246 86q81 0 152.5 -22t132.5 -66q-39 -39 -79.5 -85t-90.5 -107
l-27 20q1 2 1 6q3 30 3 45q0 75 -31.5 116.5t-88.5 41.5q-66 0 -93.5 -45t-27.5 -156v-205z" />
    <glyph glyph-name="g" unicode="g" horiz-adv-x="999" 
d="M481 264q80 0 122 60.5t42 175.5q0 116 -41.5 175.5t-122.5 59.5q-80 0 -122 -59.5t-42 -175.5q0 -115 42.5 -175.5t121.5 -60.5zM340 229q-112 26 -176 97.5t-64 171.5q0 133 106 214t283 81q15 0 94 -5.5t144 -5.5q38 0 95 1.5t130 4.5v-129h-28q-45 0 -85.5 4.5
t-78.5 12.5q51 -43 74.5 -91.5t23.5 -113.5q0 -117 -90.5 -178.5t-288.5 -79.5q-11 -1 -34 -3q-164 -15 -164 -71q0 -59 211 -90q94 -14 151 -24q146 -26 225.5 -95.5t79.5 -171.5q0 -141 -136.5 -234t-352.5 -93q-187 0 -299.5 61.5t-112.5 161.5q0 77 72.5 135t206.5 86
q-117 27 -170.5 67.5t-53.5 102.5q0 73 61 120.5t177 63.5zM844 -334q0 78 -105.5 130t-269.5 52q-107 0 -169 -32t-62 -86q0 -73 108 -124.5t272 -51.5q107 0 166.5 29.5t59.5 82.5z" />
    <glyph glyph-name="h" unicode="h" horiz-adv-x="1081" 
d="M391 176q0 -63 25 -93.5t94 -51.5l-1 -31q-74 2 -116 3t-78 1q-69 0 -137 -1.5t-137 -4.5v33q72 21 97.5 50t25.5 93v868q0 65 -25.5 95t-97.5 51v30q85 2 172 7.5t178 15.5v-631q63 92 138.5 137.5t166.5 45.5q121 0 183.5 -70t62.5 -203v-346q0 -64 25 -93t98 -50
l-1 -33q-68 3 -136 4.5t-137 1.5q-36 0 -78 -1t-117 -3v31q69 21 94 51.5t25 93.5v344q0 71 -31 106.5t-92 35.5q-52 0 -99.5 -29t-101.5 -94v-363z" />
    <glyph glyph-name="i" unicode="i" horiz-adv-x="528" 
d="M391 174q0 -64 25.5 -93t97.5 -50v-33q-41 2 -89.5 3t-145.5 1q-98 0 -147 -1t-91 -3v33q72 21 97.5 50t25.5 93v418q0 65 -25.5 94.5t-97.5 50.5v31q75 1 159.5 7t190.5 18v-619zM154 1075q0 53 36 91t86 38q51 0 87 -37.5t36 -91.5q0 -52 -36 -89.5t-87 -37.5
q-49 0 -85.5 38t-36.5 89z" />
    <glyph glyph-name="j" unicode="j" horiz-adv-x="530" 
d="M156 1075q0 53 36 91t87 38q50 0 86 -37.5t36 -91.5q0 -52 -36 -89.5t-86 -37.5t-86.5 38t-36.5 89zM393 -156q0 -216 -87 -314.5t-275 -98.5q-28 0 -54 3t-51 9v33h29q112 0 161.5 73.5t49.5 241.5v801q0 65 -25.5 94.5t-97.5 50.5v31q75 1 159.5 7t190.5 18v-949z" />
    <glyph glyph-name="k" unicode="k" horiz-adv-x="1042" 
d="M164 1042q0 65 -25.5 95t-97.5 51v30q85 2 172 7.5t178 15.5v-823l182 133q71 51 94 76.5t23 48.5q0 25 -20.5 40.5t-58.5 18.5l-1 33q40 -1 85.5 -1.5t133.5 -0.5q87 0 129.5 0.5t77.5 1.5v-33q-62 -1 -129 -29.5t-162 -97.5l-174 -129l398 -383q28 -27 53.5 -41.5
t54.5 -21.5v-33h-319l-367 369v-193q0 -63 25 -93.5t94 -51.5l-1 -31q-74 2 -116 3t-78 1q-69 0 -137 -1.5t-137 -4.5v33q72 21 97.5 50t25.5 93v868z" />
    <glyph glyph-name="l" unicode="l" horiz-adv-x="528" 
d="M164 1042q0 65 -25.5 95t-97.5 51v30q85 2 172 7.5t178 15.5v-1067q0 -64 25.5 -93t97.5 -50v-33q-41 2 -89.5 3t-145.5 1q-98 0 -147 -1t-91 -3v33q72 21 97.5 50t25.5 93v868z" />
    <glyph glyph-name="m" unicode="m" horiz-adv-x="1612" 
d="M391 610q61 93 131.5 138t157.5 45q96 0 160 -51.5t78 -139.5q63 98 135 144.5t159 46.5q119 0 181.5 -70t62.5 -203v-346q0 -64 25.5 -93t97.5 -50v-33q-69 3 -137 4.5t-137 1.5q-36 0 -78 -1t-117 -2v30q69 21 94 51.5t25 93.5v330q0 79 -28.5 117.5t-86.5 38.5
q-50 0 -94.5 -28.5t-95.5 -94.5v-363q0 -63 24.5 -93.5t93.5 -51.5v-31q-96 3 -143.5 3.5t-87.5 0.5q-42 0 -89.5 -0.5t-143.5 -3.5v31q69 21 93.5 51.5t24.5 93.5v350q0 64 -30.5 100t-83.5 36q-51 0 -95.5 -28.5t-95.5 -94.5v-363q0 -63 25 -93.5t94 -51.5l-1 -31
q-74 2 -116 3t-78 1q-69 0 -137 -1.5t-137 -4.5v33q72 21 97.5 50t25.5 93v418q0 65 -25.5 94.5t-97.5 50.5v31q75 1 159.5 7t190.5 18v-183z" />
    <glyph glyph-name="n" unicode="n" horiz-adv-x="1081" 
d="M391 176q0 -63 25 -93.5t94 -51.5l-1 -31q-74 2 -116 3t-78 1q-69 0 -137 -1.5t-137 -4.5v33q72 21 97.5 50t25.5 93v418q0 65 -25.5 94.5t-97.5 50.5v31q75 1 159.5 7t190.5 18v-183q63 92 138.5 137.5t166.5 45.5q121 0 183.5 -70t62.5 -203v-346q0 -64 25 -93t98 -50
l-1 -33q-68 3 -136 4.5t-137 1.5q-36 0 -78 -1t-117 -3v31q69 21 94 51.5t25 93.5v344q0 71 -31 106.5t-92 35.5q-52 0 -99.5 -29t-101.5 -94v-363z" />
    <glyph glyph-name="o" unicode="o" horiz-adv-x="1067" 
d="M532 -29q-211 0 -340 113t-129 297t129 297t340 113q212 0 340.5 -113t128.5 -297t-128.5 -297t-340.5 -113zM532 18q111 0 170.5 94t59.5 269t-59.5 268.5t-170.5 93.5q-110 0 -169.5 -94t-59.5 -268q0 -175 59.5 -269t169.5 -94z" />
    <glyph glyph-name="p" unicode="p" horiz-adv-x="1118" 
d="M391 582v-432q49 -47 96 -69t97 -22q107 0 165 84t58 240q0 136 -59.5 214.5t-161.5 78.5q-56 0 -105 -24t-90 -70zM391 643q73 76 146 113t149 37q169 0 268 -109.5t99 -296.5q0 -183 -106 -297.5t-273 -114.5q-75 0 -145 28t-138 85v-481q0 -64 25.5 -93t97.5 -51v-32
q-93 2 -143.5 3t-91.5 1q-78 0 -232 -4h-6v32q72 22 97.5 51t25.5 93v985q0 65 -25.5 94.5t-97.5 50.5v31q75 1 159.5 7t190.5 18v-150z" />
    <glyph glyph-name="q" unicode="q" horiz-adv-x="1110" 
d="M961 -393q0 -64 25 -93t97 -51v-32q-41 2 -89.5 3t-145.5 1q-98 0 -146.5 -1t-91.5 -3v32q73 22 98 51t25 93v497q-69 -65 -142.5 -97t-158.5 -32q-161 0 -265 108t-104 275q0 198 138 316.5t370 118.5q81 0 371 -27l18 -2zM733 180v406q0 86 -32 120.5t-109 34.5
q-128 0 -205.5 -97.5t-77.5 -260.5q0 -141 62.5 -223t169.5 -82q58 0 106.5 26t85.5 76z" />
    <glyph glyph-name="r" unicode="r" horiz-adv-x="786" 
d="M391 575q68 115 129.5 166.5t130.5 51.5q36 0 69 -14t60 -40q-18 -59 -31.5 -113t-21.5 -106q-47 47 -88.5 68.5t-85.5 21.5q-47 0 -83.5 -24t-78.5 -84v-326q0 -63 25 -93.5t94 -51.5l-1 -31q-74 2 -116 3t-78 1q-69 0 -137 -1.5t-137 -4.5v33q72 21 97.5 50t25.5 93
v418q0 65 -25.5 94.5t-97.5 50.5v31q75 1 159.5 7t190.5 18v-218z" />
    <glyph glyph-name="s" unicode="s" horiz-adv-x="758" 
d="M103 254h33q50 -112 120.5 -171.5t152.5 -59.5q50 0 85 33.5t35 82.5q0 81 -188 166l-14 6q-145 68 -185.5 115.5t-40.5 122.5q0 106 76 175t195 69q44 0 101 -14.5t69 -14.5q16 0 29.5 7t21.5 20l33 -15q-1 -20 -1.5 -45t-0.5 -74q0 -48 0.5 -72t0.5 -44h-32
q-28 91 -87.5 146.5t-127.5 55.5q-60 0 -94.5 -24t-34.5 -66q0 -62 167 -135l5 -2q149 -64 202.5 -125t53.5 -155q0 -116 -77 -187.5t-204 -71.5q-20 0 -45 4q-6 1 -8 1q-9 0 -51.5 10t-75.5 10q-28 0 -48.5 -8.5t-35.5 -26.5l-36 14q4 91 5.5 137t1.5 87v49z" />
    <glyph glyph-name="t" unicode="t" horiz-adv-x="653" 
d="M385 293q0 -105 34.5 -159t100.5 -54q30 0 61.5 12.5t59.5 36.5l23 -25q-50 -63 -116 -96t-145 -33q-117 0 -181 72.5t-64 204.5v459h-135v32q102 60 183.5 136t141.5 170h37v-271h250v-67h-250v-418z" />
    <glyph glyph-name="u" unicode="u" horiz-adv-x="1081" 
d="M702 592q0 65 -25.5 94.5t-96.5 50.5v31q75 1 159 7t191 18v-619q0 -64 25 -93t98 -50v-31q-90 -3 -178 -9t-173 -15v182q-63 -93 -139 -139t-166 -46q-120 0 -183.5 70t-63.5 203v346q0 65 -26 94.5t-97 50.5v31q75 1 159 7t191 18v-510q0 -101 28 -140t95 -39
q57 0 107.5 32.5t94.5 96.5v359z" />
    <glyph glyph-name="v" unicode="v" horiz-adv-x="930" 
d="M449 -25l-304 598q-42 85 -78.5 119.5t-86.5 42.5v33q39 -1 85.5 -1.5t139.5 -0.5t140 0.5t85 1.5v-33q-34 -9 -48.5 -25.5t-14.5 -45.5q0 -14 3 -28t9 -26l182 -360l127 258q20 43 31.5 81t11.5 60q0 37 -21 57t-69 30v32q24 -1 53.5 -1.5t89.5 -0.5q61 0 92 0.5t58 1.5
v-33q-89 -23 -165 -181q-4 -9 -7 -15l-273 -564h-40z" />
    <glyph glyph-name="w" unicode="w" horiz-adv-x="1380" 
d="M115 573q-38 80 -77 117.5t-89 45.5v32q39 -1 86 -1.5t139 -0.5q91 0 137 0.5t84 1.5v-33q-34 -9 -48.5 -25.5t-14.5 -45.5q0 -11 3 -25.5t9 -28.5l150 -344l168 373l-13 20q-19 33 -52 53t-72 23l-1 33q38 -1 83 -1.5t136 -0.5q95 0 143 0.5t89 1.5v-33
q-34 -9 -49 -25.5t-15 -45.5q0 -12 3.5 -26.5t9.5 -27.5l161 -338l105 236q21 49 32 84.5t11 56.5q0 36 -21.5 56.5t-70.5 29.5v33q25 -1 55.5 -1.5t91.5 -0.5q60 0 89.5 0.5t54.5 1.5v-33q-55 -14 -91 -52.5t-81 -143.5l-246 -564h-41l-277 605l-266 -605h-37z" />
    <glyph glyph-name="x" unicode="x" horiz-adv-x="1071" 
d="M698 561q30 30 44 53t14 43q0 31 -20.5 51.5t-57.5 26.5v33q34 -1 74 -1.5t120 -0.5t120 0.5t73 1.5v-32q-68 -4 -136.5 -46t-158.5 -137l-115 -119l228 -282q48 -61 93.5 -90t92.5 -29h4v-33q-104 3 -155.5 3.5t-96.5 0.5q-46 0 -97.5 -0.5t-155.5 -3.5v33q27 3 41 16.5
t14 36.5q0 13 -8.5 28.5t-24.5 35.5l-131 159l-101 -102q-33 -33 -47 -56t-14 -42q0 -31 20.5 -50.5t57.5 -25.5l-1 -33q-75 2 -116 3t-76 1q-63 0 -188 -4h-6v33q63 2 125.5 38.5t169.5 143.5l139 139l-207 262q-47 60 -93.5 89.5t-92.5 29.5h-4v33q44 -1 96 -1.5t158 -0.5
q103 0 155.5 0.5t95.5 1.5v-33q-27 -3 -41 -16.5t-14 -36.5q0 -10 7.5 -25t25.5 -39l108 -135z" />
    <glyph glyph-name="y" unicode="y" horiz-adv-x="834" 
d="M-6 -365q19 -3 37 -4.5t35 -1.5q96 0 167.5 53t116.5 158l68 156l-281 577q-39 82 -77 118.5t-88 43.5l-1 33q40 -1 87 -1.5t139 -0.5q90 0 134.5 0.5t82.5 1.5v-33q-34 -9 -49 -25.5t-15 -45.5q0 -13 3 -26.5t9 -27.5l170 -354l109 252q22 49 32.5 84.5t10.5 56.5
q0 37 -20.5 56.5t-69.5 30.5v32q24 -1 53.5 -1.5t89.5 -0.5q61 0 92 0.5t58 1.5v-33q-55 -15 -92 -55t-80 -141l-357 -824q-68 -159 -142.5 -221.5t-186.5 -62.5q-18 0 -37.5 1.5t-38.5 4.5z" />
    <glyph glyph-name="z" unicode="z" horiz-adv-x="985" 
d="M72 0v33l530 688h-147q-102 0 -187 -44t-143 -126h-33l17 217h772v-33l-508 -682h135q152 0 238 45.5t124 145.5h33l-18 -244h-813z" />
    <glyph glyph-name="braceleft" unicode="{" 
d="M850 1459q-128 -2 -175.5 -55t-47.5 -210v-137q0 -225 -56.5 -307.5t-208.5 -114.5q152 -32 208.5 -114.5t56.5 -307.5v-137q0 -157 47 -209t176 -54v-57h-10q-222 0 -305.5 74t-83.5 272v201q0 161 -58 223.5t-215 75.5v68q159 15 216 76t57 223v200q0 200 84.5 273.5
t314.5 73.5v-57z" />
    <glyph glyph-name="bar" unicode="|" 
d="M602 1565v-2048h-178v2048h178z" />
    <glyph glyph-name="braceright" unicode="}" 
d="M575 1169v-200q0 -162 57 -223t216 -76v-68q-157 -13 -215 -74.5t-58 -224.5v-201q0 -197 -84 -271.5t-307 -74.5h-10v57q129 2 176 54t47 209v137q0 227 56.5 308.5t208.5 113.5q-151 32 -208 113.5t-57 308.5v137q0 157 -47.5 210t-175.5 55v57h10q223 0 307 -74.5
t84 -272.5z" />
    <glyph glyph-name="asciitilde" unicode="~" horiz-adv-x="1706" 
d="M1530 600q-103 -71 -197.5 -106t-183.5 -35q-44 0 -92.5 8.5t-98.5 26.5q-25 8 -76 26q-212 74 -319 74q-82 0 -174 -38t-211 -122v187q106 72 202 107.5t185 35.5q62 0 125.5 -12t168.5 -48q13 -4 42 -15q164 -58 250 -58q85 0 177 37t202 116v-184z" />
    <glyph glyph-name="uni0080" horiz-adv-x="1020" 
d="M977 188q-55 -106 -141.5 -159.5t-204.5 -53.5q-166 0 -293.5 132.5t-151.5 343.5h-139l16 65h117q-1 10 -1.5 20.5t-0.5 32.5q0 25 1.5 49t4.5 47l-137 1l16 65h132q41 204 164.5 336.5t271.5 132.5q101 0 197 -52q25 -13 32 -13q18 0 28.5 11.5t16.5 37.5h31v-322h-31
q-26 130 -91 200.5t-152 70.5q-98 0 -162.5 -107t-79.5 -295h432l-16 -65h-420v-35q0 -50 1 -73t3 -42h375l-17 -65h-350q21 -181 90 -274t182 -93q78 0 143 33.5t109 97.5z" />
    <glyph glyph-name="uni0080" unicode="&#x20ac;" horiz-adv-x="1020" 
d="M977 188q-55 -106 -141.5 -159.5t-204.5 -53.5q-166 0 -293.5 132.5t-151.5 343.5h-139l16 65h117q-1 10 -1.5 20.5t-0.5 32.5q0 25 1.5 49t4.5 47l-137 1l16 65h132q41 204 164.5 336.5t271.5 132.5q101 0 197 -52q25 -13 32 -13q18 0 28.5 11.5t16.5 37.5h31v-322h-31
q-26 130 -91 200.5t-152 70.5q-98 0 -162.5 -107t-79.5 -295h432l-16 -65h-420v-35q0 -50 1 -73t3 -42h375l-17 -65h-350q21 -181 90 -274t182 -93q78 0 143 33.5t109 97.5z" />
    <glyph glyph-name="uni00A0" unicode="&#xa0;" horiz-adv-x="1020" 
 />
    <glyph glyph-name="exclamdown" unicode="&#xa1;" horiz-adv-x="627" 
d="M309 834q52 -244 80 -493t31 -259q6 -22 25 -33.5t49 -11.5q2 0 10 1t12 1l4 -35q-70 -14 -129 -21.5t-106 -7.5q-64 0 -91.5 20t-27.5 66q0 47 47 304.5t66 474.5zM162 1083q0 58 40.5 99t98.5 41q59 0 100 -41t41 -99q0 -56 -42 -97.5t-99 -41.5t-98 41.5t-41 97.5z
" />
    <glyph glyph-name="cent" unicode="&#xa2;" horiz-adv-x="1020" 
d="M459 160l186 602q-15 3 -29.5 4.5t-27.5 1.5q-116 0 -189 -91t-73 -237q0 -98 34 -170.5t99 -109.5zM926 225q-69 -112 -167.5 -168.5t-223.5 -56.5q-22 0 -32.5 0.5t-18.5 1.5l-64 -205h-78l72 221q-145 45 -223 143.5t-78 237.5q0 186 127 300t335 114q34 0 51.5 -1
t32.5 -3l60 190h76l-62 -200q21 -6 39.5 -9.5t32.5 -3.5q24 0 39 7t24 22h33v-57q0 -56 2 -108t6 -103h-32q-12 56 -52.5 102t-111.5 84l-193 -608q34 -9 62 -13.5t51 -5.5q73 0 142 36.5t124 103.5z" />
    <glyph glyph-name="sterling" unicode="&#xa3;" horiz-adv-x="1020" 
d="M416 133q-44 -72 -105 -115t-116 -43q-59 0 -95.5 35t-36.5 90q0 90 75 146.5t198 56.5h29v21q0 34 -7.5 77t-23.5 105h-199v76h182q-25 81 -37 146t-12 118q0 158 86.5 256t225.5 98q99 0 169 -53.5t113 -163.5l-28 -18q-29 61 -74 93t-101 32q-78 0 -119.5 -53
t-41.5 -152q0 -34 16 -210q5 -59 8 -93h197v-76h-199q-6 -62 -16.5 -118t-26.5 -107q124 -46 193.5 -66t103.5 -20q64 0 104.5 30.5t45.5 81.5l32 -2q-4 -144 -81.5 -236t-190.5 -92q-61 0 -121 34.5t-147 121.5zM348 193q-20 12 -41.5 18t-44.5 6q-56 0 -93.5 -29
t-37.5 -71q0 -31 19.5 -49.5t50.5 -18.5q48 0 88 38.5t59 105.5z" />
    <glyph glyph-name="currency" unicode="&#xa4;" horiz-adv-x="1020" 
d="M977 188q-55 -106 -141.5 -159.5t-204.5 -53.5q-166 0 -293.5 132.5t-151.5 343.5h-139l16 65h117q-1 10 -1.5 20.5t-0.5 32.5q0 25 1.5 49t4.5 47l-137 1l16 65h132q41 204 164.5 336.5t271.5 132.5q101 0 197 -52q25 -13 32 -13q18 0 28.5 11.5t16.5 37.5h31v-322h-31
q-26 130 -91 200.5t-152 70.5q-98 0 -162.5 -107t-79.5 -295h432l-16 -65h-420v-35q0 -50 1 -73t3 -42h375l-17 -65h-350q21 -181 90 -274t182 -93q78 0 143 33.5t109 97.5z" />
    <glyph glyph-name="yen" unicode="&#xa5;" horiz-adv-x="1020" 
d="M1114 1175v-32q-55 -4 -96 -30t-88 -89l-189 -258h271v-66h-320l-53 -75v-74h373v-66h-373v-256q0 -101 34.5 -145.5t117.5 -50.5l-1 -33q-66 3 -134.5 4.5t-137.5 1.5t-137 -1.5t-135 -4.5v33q82 6 116.5 50.5t34.5 145.5v256h-368v66h368v20l-88 129h-280v66h233
l-172 254q-41 60 -82.5 90t-87.5 33v32q67 -3 131.5 -4.5t126.5 -1.5q63 0 125 2t121 4v-32q-45 -8 -62.5 -21.5t-17.5 -38.5q0 -16 10 -39t29 -51l209 -317l170 235l5 8q83 116 83 148q0 34 -25 52.5t-77 23.5v33q79 -3 117 -4t69 -1q34 0 74 1t106 3z" />
    <glyph glyph-name="brokenbar" unicode="&#xa6;" 
d="M602 408v-758h-178v758h178zM602 1432v-758h-178v758h178z" />
    <glyph glyph-name="section" unicode="&#xa7;" 
d="M646 67q96 -80 142 -152.5t46 -143.5q0 -115 -99 -185.5t-262 -70.5q-137 0 -224 60.5t-87 154.5q0 62 37 99.5t98 37.5q49 0 82 -33.5t33 -81.5q0 -40 -32 -74.5t-32 -44.5q0 -27 35 -45t92 -18q81 0 127.5 38.5t46.5 104.5q0 86 -198 254l-2 2l-183 158
q-88 75 -131 145t-43 138q0 109 78 178.5t208 77.5q-101 88 -144.5 156.5t-43.5 138.5q0 120 91 191t247 71q132 0 215.5 -61t83.5 -154q0 -61 -34.5 -97.5t-92.5 -36.5q-52 0 -87 31t-35 76q0 33 31.5 70.5t31.5 50.5q0 25 -34 46t-81 21q-69 0 -111 -37t-42 -98
q0 -52 38 -106t169 -166l178 -152q89 -75 131.5 -146t42.5 -145q0 -105 -77.5 -173.5t-208.5 -78.5zM260 485q0 -48 32.5 -98.5t100.5 -110.5q110 -94 156 -122.5t80 -28.5q57 0 96 37t39 92q0 45 -28.5 92t-100.5 115q-85 81 -142 116t-102 35q-55 0 -93 -37t-38 -90z" />
    <glyph glyph-name="dieresis" unicode="&#xa8;" 
d="M582 1067q0 45 33 78t79 33q47 0 80 -32.5t33 -78.5q0 -50 -32 -82.5t-81 -32.5q-48 0 -80 33t-32 82zM217 1067q0 45 34.5 78t80.5 33t78 -32.5t32 -78.5q0 -50 -31 -82.5t-79 -32.5q-49 0 -82 33t-33 82z" />
    <glyph glyph-name="copyright" unicode="&#xa9;" horiz-adv-x="1683" 
d="M1165 1100l2 -320h-47q-32 134 -102 203.5t-172 69.5q-116 0 -176 -94t-60 -275q0 -184 65 -281.5t189 -97.5q82 0 151 43.5t126 130.5l43 -26q-63 -108 -150 -160.5t-200 -52.5q-177 0 -297.5 124t-120.5 306q0 184 119.5 309t295.5 125q80 0 154 -33t78 -33
q28 0 41.5 14t19.5 48h41zM1464 678q0 124 -48 241.5t-136 204.5q-86 86 -200 133.5t-236 47.5q-126 0 -241 -48t-202 -137q-88 -90 -135 -203.5t-47 -238.5q0 -126 47.5 -239.5t136.5 -202.5q91 -91 201.5 -137t237.5 -46q126 0 238.5 47t199.5 136q88 89 136 204.5
t48 237.5zM844 1401q140 0 272.5 -55.5t233.5 -155.5q101 -102 157 -235.5t56 -276.5q0 -142 -55.5 -274t-157.5 -236q-101 -102 -231 -155.5t-277 -53.5q-145 0 -274.5 53t-233.5 156q-104 104 -158.5 234.5t-54.5 275.5q0 143 54 274.5t157 235.5q102 102 235 157.5
t277 55.5z" />
    <glyph glyph-name="ordfeminine" unicode="&#xaa;" horiz-adv-x="700" 
d="M412 721q-40 -39 -88 -59.5t-103 -20.5q-79 0 -123.5 38t-44.5 105q0 53 37 87t121 57q41 7 93 22t108 35v33q0 51 -37 78.5t-105 27.5q-48 0 -90.5 -23t-70.5 -65l-23 11q34 82 97 123.5t155 41.5q129 0 186.5 -58.5t57.5 -190.5v-215q0 -24 9 -37t25 -13
q15 0 26.5 11.5t19.5 31.5l20 -8q-13 -47 -48 -71.5t-89 -24.5q-55 0 -89 21t-44 63zM412 764v182q-92 -26 -132 -61.5t-40 -89.5q0 -39 21.5 -62.5t55.5 -23.5q22 0 46.5 14t48.5 41z" />
    <glyph glyph-name="guillemotleft" unicode="&#xab;" horiz-adv-x="944" 
d="M502 713q-19 -48 -55 -114.5t-119 -205.5l9 -15q135 -226 165 -306l-41 -25q-60 63 -156 148t-235 198q152 126 246.5 210t144.5 136zM889 713q-20 -51 -56.5 -119.5t-115.5 -200.5q85 -141 119.5 -207t52.5 -114l-39 -25q-51 56 -147 140.5t-244 205.5q152 126 247 210
t144 136z" />
    <glyph glyph-name="logicalnot" unicode="&#xac;" horiz-adv-x="1706" 
d="M1452 862v-502h-166v336h-1032v166h1198z" />
    <glyph glyph-name="uni00AD" unicode="&#xad;" horiz-adv-x="606" 
d="M63 279v204h486v-204h-486z" />
    <glyph glyph-name="registered" unicode="&#xae;" horiz-adv-x="1683" 
d="M748 981v-258q14 -1 27 -1.5t26 -0.5q100 0 154.5 44t54.5 126q0 70 -46.5 114t-121.5 44q-47 0 -70.5 -17.5t-23.5 -50.5zM866 1096q145 0 232.5 -55t87.5 -142q0 -84 -65.5 -133t-217.5 -76q96 -25 147.5 -73t69.5 -127q6 -24 10 -67q9 -91 54 -91q29 0 44 34t15 99h49
v-23q0 -85 -43 -129.5t-127 -44.5q-46 0 -80 14.5t-53 43.5q-24 39 -27 111.5t-8 93.5q-16 74 -60.5 109.5t-121.5 35.5h-24v-246q0 -49 22.5 -69.5t85.5 -26.5v-47h-389v46q64 4 88.5 24.5t24.5 72.5v520q0 52 -23.5 72t-89.5 25v49h399zM1464 678q0 122 -48.5 240
t-135.5 206q-86 86 -200 133.5t-236 47.5q-126 0 -241 -48t-202 -137q-89 -90 -135.5 -203t-46.5 -239t47.5 -239.5t136.5 -202.5q91 -91 201.5 -137t237.5 -46q126 0 238.5 47t199.5 136q89 90 136.5 204.5t47.5 237.5zM844 1401q144 0 279 -57t235 -160
q98 -102 151.5 -235.5t53.5 -278.5q0 -138 -59.5 -272.5t-166.5 -239.5q-101 -100 -228 -149.5t-282 -49.5q-135 0 -264 54.5t-229 154.5q-105 104 -159 234t-54 276q0 143 54.5 275t156.5 235q102 102 235 157.5t277 55.5z" />
    <glyph glyph-name="macron" unicode="&#xaf;" 
d="M242 995v142h540v-142h-540z" />
    <glyph glyph-name="degree" unicode="&#xb0;" horiz-adv-x="674" 
d="M522 1165q0 77 -53.5 131t-130.5 54t-131.5 -54t-54.5 -131q0 -76 54.5 -131t131.5 -55t130.5 54.5t53.5 131.5zM338 1460q123 0 209 -87t86 -210q0 -121 -87 -208t-210 -87t-208 85.5t-85 209.5q0 125 86 211t209 86z" />
    <glyph glyph-name="plusminus" unicode="&#xb1;" horiz-adv-x="1706" 
d="M1452 182v-168h-1198v168h1198zM938 1206v-334h514v-165h-514v-334h-170v334h-514v165h514v334h170z" />
    <glyph glyph-name="uni00B2" unicode="&#xb2;" horiz-adv-x="674" 
d="M57 471v47q44 22 90.5 59t104.5 97q86 91 121 158.5t35 136.5q0 63 -36.5 100t-99.5 37q-43 0 -79.5 -25t-67.5 -77l-27 10q26 82 90 130t148 48q92 0 155.5 -54t63.5 -132q0 -84 -76 -180t-262 -242h365v-113h-525z" />
    <glyph glyph-name="uni00B3" unicode="&#xb3;" horiz-adv-x="674" 
d="M94 580q43 -35 84 -52.5t80 -17.5q72 0 120 42.5t48 106.5q0 75 -58.5 116.5t-166.5 43.5v37q85 8 137.5 53.5t52.5 110.5q0 49 -35 79.5t-92 30.5q-40 0 -71.5 -15.5t-57.5 -49.5l-31 18q36 55 87.5 82t119.5 27q98 0 156.5 -43.5t58.5 -114.5q0 -46 -29 -84.5
t-87 -70.5q83 -30 124 -77.5t41 -113.5q0 -100 -77.5 -165.5t-196.5 -65.5q-68 0 -127 24t-108 72z" />
    <glyph glyph-name="acute" unicode="&#xb4;" 
d="M336 903l276 299q27 29 55 45.5t52 16.5q31 0 53.5 -23t22.5 -55q0 -26 -17.5 -47.5t-66.5 -53.5l-301 -182h-74z" />
    <glyph glyph-name="uni00B5" unicode="&#xb5;" horiz-adv-x="1184" 
d="M68 373l108 512h207l-100 -467q-10 -46 -15.5 -82t-5.5 -57q0 -64 37 -101t102 -37q87 0 139 53.5t76 167.5l111 523h209l-113 -533l-3 -15q-15 -70 -15 -110q0 -42 22.5 -66t63.5 -24q40 0 71 21.5t58 68.5q9 17 23 49q25 60 51 60q11 0 16.5 -7.5t5.5 -23.5
q0 -28 -17 -85.5t-40 -100.5q-41 -72 -95.5 -108t-123.5 -36q-84 0 -129.5 55t-47.5 156q-42 -104 -109.5 -157.5t-156.5 -53.5q-99 0 -156.5 58t-68.5 168q-23 -124 -48 -315q-39 -306 -134 -306q-47 0 -73 26.5t-26 74.5q0 52 69 282.5t108 409.5z" />
    <glyph glyph-name="paragraph" unicode="&#xb6;" 
d="M969 1380h-117v-1380h-129v1380h-168v-1380h-131v784q-168 6 -268.5 101t-100.5 245q0 158 107 253.5t284 95.5h523v-99z" />
    <glyph glyph-name="periodcentered" unicode="&#xb7;" horiz-adv-x="510" 
d="M115 610q0 58 40.5 99t98.5 41t98.5 -40.5t40.5 -99.5q0 -57 -41 -98t-98 -41t-98 41t-41 98z" />
    <glyph glyph-name="cedilla" unicode="&#xb8;" 
d="M268 -379l39 90q60 -38 119.5 -58t112.5 -20q56 0 83 22t27 69q0 42 -27 64t-81 22q-15 -1 -30 -2.5t-32 -3.5v196h66v-115q11 2 23.5 3t37.5 1q88 0 137.5 -43.5t49.5 -121.5q0 -84 -59.5 -131.5t-166.5 -47.5q-59 0 -132 19t-167 57z" />
    <glyph glyph-name="uni00B9" unicode="&#xb9;" horiz-adv-x="672" 
d="M162 471v20q55 4 77.5 30.5t22.5 88.5v412q0 23 -8 31t-27 8q-14 0 -29.5 -1.5t-33.5 -4.5v20q61 23 116.5 52t104.5 65h25v-582q0 -63 22 -89t78 -30v-19q-68 1 -105 2t-69 1t-69.5 -1t-104.5 -3z" />
    <glyph glyph-name="ordmasculine" unicode="&#xba;" horiz-adv-x="801" 
d="M399 637q-158 0 -255 79t-97 208t96.5 207.5t255.5 78.5q160 0 256.5 -78.5t96.5 -207.5t-97 -208t-256 -79zM399 670q83 0 127.5 65.5t44.5 188.5q0 122 -44.5 188t-127.5 66q-82 0 -127 -66.5t-45 -187.5q0 -123 45 -188.5t127 -65.5z" />
    <glyph glyph-name="guillemotright" unicode="&#xbb;" horiz-adv-x="944" 
d="M442 74q21 52 60 124.5t112 194.5q-91 152 -123 213t-49 107l41 26q52 -55 147.5 -140t243.5 -206q-151 -126 -246 -210t-145 -136zM53 74q20 50 56.5 118.5t115.5 200.5q-91 152 -123 213t-49 107l41 26q51 -55 147 -140t244 -206q-152 -126 -246.5 -210t-144.5 -136z
" />
    <glyph glyph-name="onequarter" unicode="&#xbc;" horiz-adv-x="1626" 
d="M1303 0v168h-254v49l358 455h33v-428h129v-76h-129v-168h-137zM1116 244h187v235zM1208 1200h117l-905 -1225h-119zM154 518v18q53 4 74.5 29t21.5 84v383q0 22 -7.5 29.5t-25.5 7.5q-15 0 -30.5 -1.5t-30.5 -4.5v18q54 19 106.5 46.5t104.5 62.5h22v-541q0 -58 22 -83.5
t74 -29.5v-18q-68 3 -102 3.5t-64 0.5q-29 0 -63 -0.5t-102 -3.5z" />
    <glyph glyph-name="onehalf" unicode="&#xbd;" horiz-adv-x="1626" 
d="M1038 0v45q44 20 89 54.5t98 88.5q82 85 115.5 148t33.5 129q0 59 -34.5 93t-94.5 34q-43 0 -77 -23.5t-62 -70.5l-29 8q26 77 88 121.5t142 44.5q88 0 147 -49.5t59 -122.5q0 -80 -73 -171t-248 -225h350v-104h-504zM1208 1200h117l-905 -1225h-119zM154 518v18
q53 4 74.5 29t21.5 84v383q0 22 -7.5 29.5t-25.5 7.5q-15 0 -30.5 -1.5t-30.5 -4.5v18q54 19 106.5 46.5t104.5 62.5h22v-541q0 -58 22 -83.5t74 -29.5v-18q-68 3 -102 3.5t-64 0.5q-29 0 -63 -0.5t-102 -3.5z" />
    <glyph glyph-name="threequarters" unicode="&#xbe;" horiz-adv-x="1626" 
d="M1303 0v168h-254v49l358 455h33v-428h129v-76h-129v-168h-137zM1116 244h187v235zM1208 1200h117l-905 -1225h-119zM90 621q38 -32 78 -49t78 -17q69 0 114.5 40t45.5 99q0 69 -56 108t-157 42v35q80 6 130 48.5t50 102.5q0 46 -34 75.5t-87 29.5q-38 0 -68 -15.5
t-55 -48.5l-29 19q34 51 83 75.5t116 24.5q92 0 147.5 -40t55.5 -106q0 -43 -27 -79.5t-84 -67.5q79 -26 118.5 -70t39.5 -106q0 -94 -74.5 -155.5t-187.5 -61.5q-62 0 -119.5 23t-106.5 67z" />
    <glyph glyph-name="questiondown" unicode="&#xbf;" horiz-adv-x="692" 
d="M418 838q14 -23 21 -45.5t7 -40.5q0 -33 -16.5 -66t-62.5 -88q-58 -68 -79.5 -118t-21.5 -107q0 -96 58.5 -159.5t142.5 -63.5q42 0 80.5 20t66.5 57l31 -22q-33 -109 -109 -169.5t-180 -60.5q-127 0 -213 94.5t-86 235.5q0 154 205 329q36 31 55 48q38 33 56 61t18 54
q0 7 -3 18q-1 3 -1 4zM547 1083q0 -57 -41 -98t-98 -41q-59 0 -99.5 40.5t-40.5 98.5q0 57 41.5 98.5t98.5 41.5q56 0 97.5 -41.5t41.5 -98.5z" />
    <glyph glyph-name="Agrave" unicode="&#xc0;" horiz-adv-x="1147" 
d="M299 492h371l-191 483zM203 234q-3 -7 -7 -17q-28 -73 -28 -111q0 -26 21 -45t60 -28v-33q-40 3 -81.5 4.5t-83.5 1.5q-41 0 -80.5 -1.5t-76.5 -4.5l-1 33q62 6 109 54.5t84 145.5l370 990h160l387 -990q39 -98 86 -146t109 -54l-1 -33q-63 3 -127.5 4.5t-129.5 1.5
t-128.5 -1.5t-127.5 -4.5v33q39 9 60.5 28t21.5 45q0 23 -7 51t-26 76l-66 166h-432zM749 1335h-74l-301 182q-49 32 -66.5 53.5t-17.5 47.5q0 32 22.5 55t53.5 23q24 0 52 -16.5t55 -45.5z" />
    <glyph glyph-name="Aacute" unicode="&#xc1;" horiz-adv-x="1147" 
d="M299 492h371l-191 483zM203 234q-3 -7 -7 -17q-28 -73 -28 -111q0 -26 21 -45t60 -28v-33q-40 3 -81.5 4.5t-83.5 1.5q-41 0 -80.5 -1.5t-76.5 -4.5l-1 33q62 6 109 54.5t84 145.5l370 990h160l387 -990q39 -98 86 -146t109 -54l-1 -33q-63 3 -127.5 4.5t-129.5 1.5
t-128.5 -1.5t-127.5 -4.5v33q39 9 60.5 28t21.5 45q0 23 -7 51t-26 76l-66 166h-432zM397 1335l276 299q27 29 55 45.5t52 16.5q31 0 53.5 -23t22.5 -55q0 -26 -17.5 -47.5t-66.5 -53.5l-301 -182h-74z" />
    <glyph glyph-name="Acircumflex" unicode="&#xc2;" horiz-adv-x="1147" 
d="M299 492h371l-191 483zM203 234q-3 -7 -7 -17q-28 -73 -28 -111q0 -26 21 -45t60 -28v-33q-40 3 -81.5 4.5t-83.5 1.5q-41 0 -80.5 -1.5t-76.5 -4.5l-1 33q62 6 109 54.5t84 145.5l370 990h160l387 -990q39 -98 86 -146t109 -54l-1 -33q-63 3 -127.5 4.5t-129.5 1.5
t-128.5 -1.5t-127.5 -4.5v33q39 9 60.5 28t21.5 45q0 23 -7 51t-26 76l-66 166h-432zM278 1335l227 348h134l229 -348h-74l-221 195l-221 -195h-74z" />
    <glyph glyph-name="Atilde" unicode="&#xc3;" horiz-adv-x="1147" 
d="M299 492h371l-191 483zM203 234q-3 -7 -7 -17q-28 -73 -28 -111q0 -26 21 -45t60 -28v-33q-40 3 -81.5 4.5t-83.5 1.5q-41 0 -80.5 -1.5t-76.5 -4.5l-1 33q62 6 109 54.5t84 145.5l370 990h160l387 -990q39 -98 86 -146t109 -54l-1 -33q-63 3 -127.5 4.5t-129.5 1.5
t-128.5 -1.5t-127.5 -4.5v33q39 9 60.5 28t21.5 45q0 23 -7 51t-26 76l-66 166h-432zM856 1653q-22 -113 -71.5 -171.5t-123.5 -58.5q-11 0 -23.5 1.5t-27.5 4.5l-107 27q-3 1 -8 2q-36 8 -45 8q-42 0 -65 -20.5t-37 -71.5h-58q24 117 72 174.5t125 57.5q16 0 32.5 -2.5
t30.5 -6.5l109 -26q12 -3 24.5 -4.5t26.5 -1.5q34 0 56 21.5t32 66.5h58z" />
    <glyph glyph-name="Adieresis" unicode="&#xc4;" horiz-adv-x="1147" 
d="M299 492h371l-191 483zM203 234q-3 -7 -7 -17q-28 -73 -28 -111q0 -26 21 -45t60 -28v-33q-40 3 -81.5 4.5t-83.5 1.5q-41 0 -80.5 -1.5t-76.5 -4.5l-1 33q62 6 109 54.5t84 145.5l370 990h160l387 -990q39 -98 86 -146t109 -54l-1 -33q-63 3 -127.5 4.5t-129.5 1.5
t-128.5 -1.5t-127.5 -4.5v33q39 9 60.5 28t21.5 45q0 23 -7 51t-26 76l-66 166h-432zM643 1499q0 45 33 78t79 33q47 0 80 -32.5t33 -78.5q0 -50 -32 -82.5t-81 -32.5q-48 0 -80 33t-32 82zM278 1499q0 45 34.5 78t80.5 33t78 -32.5t32 -78.5q0 -50 -31 -82.5t-79 -32.5
q-49 0 -82 33t-33 82z" />
    <glyph glyph-name="Aring" unicode="&#xc5;" horiz-adv-x="1147" 
d="M426 1536q0 -60 40.5 -100.5t100.5 -40.5t101 40.5t41 100.5t-41.5 101.5t-100.5 41.5t-100 -41.5t-41 -101.5zM319 1538q0 104 72 176t176 72q105 0 176.5 -72t71.5 -176t-71.5 -176t-176.5 -72q-104 0 -176 72t-72 176zM203 234q-3 -7 -7 -17q-28 -73 -28 -111
q0 -26 21 -45t60 -28v-33q-40 3 -81.5 4.5t-83.5 1.5q-41 0 -80.5 -1.5t-76.5 -4.5l-1 33q62 6 109 54.5t84 145.5l370 990h160l387 -990q39 -98 86 -146t109 -54l-1 -33q-63 3 -127.5 4.5t-129.5 1.5t-128.5 -1.5t-127.5 -4.5v33q39 9 60.5 28t21.5 45q0 23 -7 51t-26 76
l-66 166h-432zM299 492h371l-191 483z" />
    <glyph glyph-name="AE" unicode="&#xc6;" horiz-adv-x="1706" 
d="M532 641h302v496zM1579 1193v-259h-33q-22 102 -78 144t-172 42h-196v-479h174q94 0 143.5 35.5t57.5 107.5h34v-362h-34q-16 75 -61 108t-132 33h-182v-325q0 -92 40.5 -127t143.5 -35q119 0 186 48t115 167l33 -4l-25 -287h-12q-311 4 -459 4q-82 0 -176 -1t-266 -3v33
q84 6 119 51t35 149v330h-349l-178 -293q-42 -67 -55.5 -99t-13.5 -54q0 -41 22.5 -60t77.5 -25l-1 -32q-72 2 -116.5 3t-83.5 1q-67 0 -213 -4h-6v33q85 8 152 51t114 121l603 989q70 -1 153 -1.5t246 -0.5t244 0.5t149 0.5z" />
    <glyph glyph-name="Ccedilla" unicode="&#xc7;" horiz-adv-x="1255" 
d="M1196 225q-99 -123 -229.5 -188.5t-278.5 -65.5q-108 0 -201 29t-174 88q-113 84 -174 211t-61 279q0 110 35 209.5t112 205.5q78 107 206.5 168.5t275.5 61.5q102 0 224 -39t140 -39q29 0 47.5 15.5t22.5 43.5h33v-426h-33q-29 167 -142 273t-260 106
q-166 0 -273.5 -144.5t-107.5 -373.5q0 -253 119 -401t320 -148q104 0 199.5 41.5t174.5 120.5zM409 -379l39 90q60 -38 119.5 -58t112.5 -20q56 0 83 22t27 69q0 42 -27 64t-81 22q-15 -1 -30 -2.5t-32 -3.5v196h66v-115q11 2 23.5 3t37.5 1q88 0 137.5 -43.5t49.5 -121.5
q0 -84 -59.5 -131.5t-166.5 -47.5q-59 0 -132 19t-167 57z" />
    <glyph glyph-name="Egrave" unicode="&#xc8;" horiz-adv-x="1104" 
d="M974 1194l1 -260h-33q-20 98 -76.5 142t-160.5 44h-211v-479h176q95 0 145 36t55 107h33v-362h-33q-15 74 -61 107.5t-133 33.5h-182v-325q0 -91 41 -126.5t145 -35.5q119 0 186 48t115 167l33 -4l-27 -287q-162 2 -258 3t-180 1q-148 0 -457 -4h-18v33q83 6 118 51
t35 149v728q0 104 -35 149t-118 51v33q72 -1 160 -1.5t272 -0.5q188 0 286 0.5t182 1.5zM729 1335h-74l-301 182q-49 32 -66.5 53.5t-17.5 47.5q0 32 22.5 55t53.5 23q24 0 52 -16.5t55 -45.5z" />
    <glyph glyph-name="Eacute" unicode="&#xc9;" horiz-adv-x="1104" 
d="M974 1194l1 -260h-33q-20 98 -76.5 142t-160.5 44h-211v-479h176q95 0 145 36t55 107h33v-362h-33q-15 74 -61 107.5t-133 33.5h-182v-325q0 -91 41 -126.5t145 -35.5q119 0 186 48t115 167l33 -4l-27 -287q-162 2 -258 3t-180 1q-148 0 -457 -4h-18v33q83 6 118 51
t35 149v728q0 104 -35 149t-118 51v33q72 -1 160 -1.5t272 -0.5q188 0 286 0.5t182 1.5zM377 1335l276 299q27 29 55 45.5t52 16.5q31 0 53.5 -23t22.5 -55q0 -26 -17.5 -47.5t-66.5 -53.5l-301 -182h-74z" />
    <glyph glyph-name="Ecircumflex" unicode="&#xca;" horiz-adv-x="1104" 
d="M974 1194l1 -260h-33q-20 98 -76.5 142t-160.5 44h-211v-479h176q95 0 145 36t55 107h33v-362h-33q-15 74 -61 107.5t-133 33.5h-182v-325q0 -91 41 -126.5t145 -35.5q119 0 186 48t115 167l33 -4l-27 -287q-162 2 -258 3t-180 1q-148 0 -457 -4h-18v33q83 6 118 51
t35 149v728q0 104 -35 149t-118 51v33q72 -1 160 -1.5t272 -0.5q188 0 286 0.5t182 1.5zM258 1335l227 348h134l229 -348h-74l-221 195l-221 -195h-74z" />
    <glyph glyph-name="Edieresis" unicode="&#xcb;" horiz-adv-x="1104" 
d="M974 1194l1 -260h-33q-20 98 -76.5 142t-160.5 44h-211v-479h176q95 0 145 36t55 107h33v-362h-33q-15 74 -61 107.5t-133 33.5h-182v-325q0 -91 41 -126.5t145 -35.5q119 0 186 48t115 167l33 -4l-27 -287q-162 2 -258 3t-180 1q-148 0 -457 -4h-18v33q83 6 118 51
t35 149v728q0 104 -35 149t-118 51v33q72 -1 160 -1.5t272 -0.5q188 0 286 0.5t182 1.5zM623 1499q0 45 33 78t79 33q47 0 80 -32.5t33 -78.5q0 -50 -32 -82.5t-81 -32.5q-48 0 -80 33t-32 82zM258 1499q0 45 34.5 78t80.5 33t78 -32.5t32 -78.5q0 -50 -31 -82.5t-79 -32.5
q-49 0 -82 33t-33 82z" />
    <glyph glyph-name="Igrave" unicode="&#xcc;" horiz-adv-x="721" 
d="M494 233q0 -104 35 -149t118 -51v-33q-70 3 -142 4.5t-145 1.5q-72 0 -143 -1.5t-143 -4.5v33q83 6 118 51t35 149v728q0 104 -35 149t-118 51v33q72 -3 143 -4.5t143 -1.5q73 0 145 1.5t142 4.5v-33q-83 -6 -118 -51t-35 -149v-728zM537 1335h-74l-301 182
q-49 32 -66.5 53.5t-17.5 47.5q0 32 22.5 55t53.5 23q24 0 52 -16.5t55 -45.5z" />
    <glyph glyph-name="Iacute" unicode="&#xcd;" horiz-adv-x="721" 
d="M494 233q0 -104 35 -149t118 -51v-33q-70 3 -142 4.5t-145 1.5q-72 0 -143 -1.5t-143 -4.5v33q83 6 118 51t35 149v728q0 104 -35 149t-118 51v33q72 -3 143 -4.5t143 -1.5q73 0 145 1.5t142 4.5v-33q-83 -6 -118 -51t-35 -149v-728zM185 1335l276 299q27 29 55 45.5
t52 16.5q31 0 53.5 -23t22.5 -55q0 -26 -17.5 -47.5t-66.5 -53.5l-301 -182h-74z" />
    <glyph glyph-name="Icircumflex" unicode="&#xce;" horiz-adv-x="721" 
d="M494 233q0 -104 35 -149t118 -51v-33q-70 3 -142 4.5t-145 1.5q-72 0 -143 -1.5t-143 -4.5v33q83 6 118 51t35 149v728q0 104 -35 149t-118 51v33q72 -3 143 -4.5t143 -1.5q73 0 145 1.5t142 4.5v-33q-83 -6 -118 -51t-35 -149v-728zM66 1335l227 348h134l229 -348h-74
l-221 195l-221 -195h-74z" />
    <glyph glyph-name="Idieresis" unicode="&#xcf;" horiz-adv-x="721" 
d="M494 233q0 -104 35 -149t118 -51v-33q-70 3 -142 4.5t-145 1.5q-72 0 -143 -1.5t-143 -4.5v33q83 6 118 51t35 149v728q0 104 -35 149t-118 51v33q72 -3 143 -4.5t143 -1.5q73 0 145 1.5t142 4.5v-33q-83 -6 -118 -51t-35 -149v-728zM431 1499q0 45 33 78t79 33
q47 0 80 -32.5t33 -78.5q0 -50 -32 -82.5t-81 -32.5q-48 0 -80 33t-32 82zM66 1499q0 45 34.5 78t80.5 33t78 -32.5t32 -78.5q0 -50 -31 -82.5t-79 -32.5q-49 0 -82 33t-33 82z" />
    <glyph glyph-name="Eth" unicode="&#xd0;" horiz-adv-x="1489" 
d="M74 0v33q83 6 118 51t35 149v351h-227v75h227v302q0 104 -35 149t-118 51v33h616q335 0 528 -169t193 -462q0 -278 -189 -420.5t-558 -142.5h-590zM494 1120v-461h323v-75h-323v-342q0 -103 40 -138.5t150 -35.5q206 0 325 137.5t119 376.5q0 248 -120.5 393t-327.5 145
h-186z" />
    <glyph glyph-name="Ntilde" unicode="&#xd1;" horiz-adv-x="1421" 
d="M287 233q0 -104 35 -149t118 -51v-33q-47 3 -94.5 4.5t-95.5 1.5q-49 0 -97 -1.5t-95 -4.5l-1 33q84 6 119 51t35 149v801q-33 49 -77 81t-95 46v33q46 -3 90.5 -4.5t89.5 -1.5t89.5 1.5t88.5 4.5l742 -797v564q0 104 -35 149t-119 51l1 33q47 -3 94.5 -4.5t97.5 -1.5
q48 0 95.5 1.5t94.5 4.5v-33q-84 -6 -119 -51t-35 -149v-973h-34l-893 962v-717zM994 1653q-22 -113 -71.5 -171.5t-123.5 -58.5q-11 0 -23.5 1.5t-27.5 4.5l-107 27q-3 1 -8 2q-36 8 -45 8q-42 0 -65 -20.5t-37 -71.5h-58q24 117 72 174.5t125 57.5q16 0 32.5 -2.5
t30.5 -6.5l109 -26q12 -3 24.5 -4.5t26.5 -1.5q34 0 56 21.5t32 66.5h58z" />
    <glyph glyph-name="Ograve" unicode="&#xd2;" horiz-adv-x="1436" 
d="M719 -29q-287 0 -464 173t-177 454t176.5 453t464.5 172q287 0 463 -172t176 -453t-176 -454t-463 -173zM362 598q0 -274 90.5 -416.5t264.5 -142.5t265 143t91 416q0 274 -91.5 417.5t-264.5 143.5q-174 0 -264.5 -143.5t-90.5 -417.5zM895 1335h-74l-301 182
q-49 32 -66.5 53.5t-17.5 47.5q0 32 22.5 55t53.5 23q24 0 52 -16.5t55 -45.5z" />
    <glyph glyph-name="Oacute" unicode="&#xd3;" horiz-adv-x="1436" 
d="M719 -29q-287 0 -464 173t-177 454t176.5 453t464.5 172q287 0 463 -172t176 -453t-176 -454t-463 -173zM362 598q0 -274 90.5 -416.5t264.5 -142.5t265 143t91 416q0 274 -91.5 417.5t-264.5 143.5q-174 0 -264.5 -143.5t-90.5 -417.5zM543 1335l276 299q27 29 55 45.5
t52 16.5q31 0 53.5 -23t22.5 -55q0 -26 -17.5 -47.5t-66.5 -53.5l-301 -182h-74z" />
    <glyph glyph-name="Ocircumflex" unicode="&#xd4;" horiz-adv-x="1436" 
d="M719 -29q-287 0 -464 173t-177 454t176.5 453t464.5 172q287 0 463 -172t176 -453t-176 -454t-463 -173zM362 598q0 -274 90.5 -416.5t264.5 -142.5t265 143t91 416q0 274 -91.5 417.5t-264.5 143.5q-174 0 -264.5 -143.5t-90.5 -417.5zM424 1335l227 348h134l229 -348
h-74l-221 195l-221 -195h-74z" />
    <glyph glyph-name="Otilde" unicode="&#xd5;" horiz-adv-x="1436" 
d="M719 -29q-287 0 -464 173t-177 454t176.5 453t464.5 172q287 0 463 -172t176 -453t-176 -454t-463 -173zM362 598q0 -274 90.5 -416.5t264.5 -142.5t265 143t91 416q0 274 -91.5 417.5t-264.5 143.5q-174 0 -264.5 -143.5t-90.5 -417.5zM1002 1653q-22 -113 -71.5 -171.5
t-123.5 -58.5q-11 0 -23.5 1.5t-27.5 4.5l-107 27q-3 1 -8 2q-36 8 -45 8q-42 0 -65 -20.5t-37 -71.5h-58q24 117 72 174.5t125 57.5q16 0 32.5 -2.5t30.5 -6.5l109 -26q12 -3 24.5 -4.5t26.5 -1.5q34 0 56 21.5t32 66.5h58z" />
    <glyph glyph-name="Odieresis" unicode="&#xd6;" horiz-adv-x="1436" 
d="M719 -29q-287 0 -464 173t-177 454t176.5 453t464.5 172q287 0 463 -172t176 -453t-176 -454t-463 -173zM362 598q0 -274 90.5 -416.5t264.5 -142.5t265 143t91 416q0 274 -91.5 417.5t-264.5 143.5q-174 0 -264.5 -143.5t-90.5 -417.5zM789 1499q0 45 33 78t79 33
q47 0 80 -32.5t33 -78.5q0 -50 -32 -82.5t-81 -32.5q-48 0 -80 33t-32 82zM424 1499q0 45 34.5 78t80.5 33t78 -32.5t32 -78.5q0 -50 -31 -82.5t-79 -32.5q-49 0 -82 33t-33 82z" />
    <glyph glyph-name="multiply" unicode="&#xd7;" horiz-adv-x="1706" 
d="M862 729l461 459l117 -117l-459 -461l459 -458l-117 -119l-461 461l-459 -461l-116 119l458 458l-458 461l116 117z" />
    <glyph glyph-name="Oslash" unicode="&#xd8;" horiz-adv-x="1436" 
d="M1022 956l-561 -792q52 -63 116 -94t142 -31q170 0 262 140.5t92 402.5q0 127 -13 221.5t-38 152.5zM416 240l561 792q-50 61 -118 94t-142 33q-171 0 -263 -141.5t-92 -405.5q0 -116 14 -211t40 -161zM154 -131l161 225q-117 90 -177 217t-60 287q0 281 176.5 453
t464.5 172q100 0 183.5 -20.5t152.5 -61.5l129 184h98l-162 -225q118 -90 178 -216.5t60 -285.5q0 -281 -176 -454t-463 -173q-101 0 -185.5 20.5t-152.5 61.5l-129 -184h-98z" />
    <glyph glyph-name="Ugrave" unicode="&#xd9;" horiz-adv-x="1456" 
d="M453 360q0 -155 50.5 -222.5t164.5 -67.5q87 0 170.5 44t158.5 130v717q0 104 -35 149t-118 51v33q72 -3 143 -4.5t143 -1.5q73 0 145 1.5t142 4.5v-33q-83 -6 -118 -51t-35 -149v-728q0 -104 35 -149t118 -51v-33q-52 3 -104 4.5t-105 1.5q-54 0 -106.5 -1.5
t-103.5 -4.5l-1 150q-93 -91 -198.5 -135t-229.5 -44q-193 0 -288 101t-95 307v582q0 104 -35 149t-118 51v33q72 -3 143 -4.5t143 -1.5q73 0 145 1.5t142 4.5v-33q-83 -6 -118 -51t-35 -149v-601zM905 1335h-74l-301 182q-49 32 -66.5 53.5t-17.5 47.5q0 32 22.5 55
t53.5 23q24 0 52 -16.5t55 -45.5z" />
    <glyph glyph-name="Uacute" unicode="&#xda;" horiz-adv-x="1456" 
d="M453 360q0 -155 50.5 -222.5t164.5 -67.5q87 0 170.5 44t158.5 130v717q0 104 -35 149t-118 51v33q72 -3 143 -4.5t143 -1.5q73 0 145 1.5t142 4.5v-33q-83 -6 -118 -51t-35 -149v-728q0 -104 35 -149t118 -51v-33q-52 3 -104 4.5t-105 1.5q-54 0 -106.5 -1.5
t-103.5 -4.5l-1 150q-93 -91 -198.5 -135t-229.5 -44q-193 0 -288 101t-95 307v582q0 104 -35 149t-118 51v33q72 -3 143 -4.5t143 -1.5q73 0 145 1.5t142 4.5v-33q-83 -6 -118 -51t-35 -149v-601zM553 1335l276 299q27 29 55 45.5t52 16.5q31 0 53.5 -23t22.5 -55
q0 -26 -17.5 -47.5t-66.5 -53.5l-301 -182h-74z" />
    <glyph glyph-name="Ucircumflex" unicode="&#xdb;" horiz-adv-x="1456" 
d="M453 360q0 -155 50.5 -222.5t164.5 -67.5q87 0 170.5 44t158.5 130v717q0 104 -35 149t-118 51v33q72 -3 143 -4.5t143 -1.5q73 0 145 1.5t142 4.5v-33q-83 -6 -118 -51t-35 -149v-728q0 -104 35 -149t118 -51v-33q-52 3 -104 4.5t-105 1.5q-54 0 -106.5 -1.5
t-103.5 -4.5l-1 150q-93 -91 -198.5 -135t-229.5 -44q-193 0 -288 101t-95 307v582q0 104 -35 149t-118 51v33q72 -3 143 -4.5t143 -1.5q73 0 145 1.5t142 4.5v-33q-83 -6 -118 -51t-35 -149v-601zM434 1335l227 348h134l229 -348h-74l-221 195l-221 -195h-74z" />
    <glyph glyph-name="Udieresis" unicode="&#xdc;" horiz-adv-x="1456" 
d="M453 360q0 -155 50.5 -222.5t164.5 -67.5q87 0 170.5 44t158.5 130v717q0 104 -35 149t-118 51v33q72 -3 143 -4.5t143 -1.5q73 0 145 1.5t142 4.5v-33q-83 -6 -118 -51t-35 -149v-728q0 -104 35 -149t118 -51v-33q-52 3 -104 4.5t-105 1.5q-54 0 -106.5 -1.5
t-103.5 -4.5l-1 150q-93 -91 -198.5 -135t-229.5 -44q-193 0 -288 101t-95 307v582q0 104 -35 149t-118 51v33q72 -3 143 -4.5t143 -1.5q73 0 145 1.5t142 4.5v-33q-83 -6 -118 -51t-35 -149v-601zM799 1499q0 45 33 78t79 33q47 0 80 -32.5t33 -78.5q0 -50 -32 -82.5
t-81 -32.5q-48 0 -80 33t-32 82zM434 1499q0 45 34.5 78t80.5 33t78 -32.5t32 -78.5q0 -50 -31 -82.5t-79 -32.5q-49 0 -82 33t-33 82z" />
    <glyph glyph-name="Yacute" unicode="&#xdd;" horiz-adv-x="1090" 
d="M682 233q0 -104 35 -149t119 -51l-1 -33q-69 3 -141 4.5t-145 1.5q-72 0 -143.5 -1.5t-142.5 -4.5l-1 33q84 6 119 51t35 149v347l-312 456q-40 61 -82 91.5t-89 33.5v33q68 -3 136 -4.5t136 -1.5t134 1.5t130 3.5v-32q-43 -8 -62.5 -22.5t-19.5 -38.5q0 -15 10 -38
t29 -52l209 -310l159 225q8 11 20 28q73 101 73 128q0 36 -26 55.5t-78 24.5l-1 33h7q120 -4 176 -4q38 0 80.5 1t117.5 3v-33q-57 -4 -100 -31t-88 -90l-293 -407v-400zM369 1335l276 299q27 29 55 45.5t52 16.5q31 0 53.5 -23t22.5 -55q0 -26 -17.5 -47.5t-66.5 -53.5
l-301 -182h-74z" />
    <glyph glyph-name="Thorn" unicode="&#xde;" horiz-adv-x="1118" 
d="M74 0v33q83 6 118 51t35 149v728q0 103 -34.5 147.5t-118.5 52.5v33h573v-32q-84 -8 -118.5 -53t-34.5 -148v-27h153q217 0 334 -85.5t117 -242.5q0 -150 -116.5 -244t-307.5 -94q-33 0 -78 4t-102 13v-52q0 -104 35 -149t118 -51v-33q-70 3 -142 4.5t-145 1.5
q-72 0 -143 -1.5t-143 -4.5zM494 360q36 -5 53 -6.5t31 -1.5q115 0 176 64.5t61 185.5q0 128 -69.5 193t-206.5 65q-19 0 -28.5 -0.5t-16.5 -1.5v-498z" />
    <glyph glyph-name="germandbls" unicode="&#xdf;" 
d="M367 147q0 -51 16.5 -75.5t60.5 -40.5v-31q-74 3 -110.5 3.5t-69.5 0.5q-62 0 -123.5 -1.5t-123.5 -4.5l-1 33q73 21 98 50t25 93v606q0 133 15 196.5t49 110.5q52 75 140 115.5t196 40.5q161 0 264.5 -87.5t103.5 -221.5q0 -107 -70.5 -179t-207.5 -104
q170 -30 262 -122t92 -232q0 -138 -87 -230t-216 -92q-55 0 -99.5 19.5t-80.5 58.5l24 29q17 -12 37 -18.5t43 -6.5q65 0 98 60t33 178q0 172 -64.5 249t-207.5 77h-6v47q112 0 164.5 63.5t52.5 200.5q0 127 -38.5 190.5t-115.5 63.5q-87 0 -120 -53.5t-33 -247.5v-738z" />
    <glyph glyph-name="agrave" unicode="&#xe0;" horiz-adv-x="934" 
d="M549 90q-53 -56 -118 -85.5t-136 -29.5q-106 0 -165.5 55t-59.5 150q0 76 49 124t162 81q4 1 19 5q128 31 249 79v45q0 73 -48.5 112.5t-140.5 39.5q-65 0 -121 -32.5t-94 -92.5l-30 16q44 117 128.5 176.5t207.5 59.5q172 0 248.5 -83.5t76.5 -273.5v-307
q0 -33 12 -51.5t33 -18.5q20 0 35.5 16.5t24.5 45.5l28 -12q-17 -67 -63.5 -102.5t-118.5 -35.5q-76 0 -120 29.5t-58 89.5zM549 152v262q-123 -37 -176.5 -88.5t-53.5 -130.5q0 -55 28.5 -88t74.5 -33q30 0 62.5 20t64.5 58zM644 903h-74l-301 182q-49 32 -66.5 53.5
t-17.5 47.5q0 32 22.5 55t53.5 23q24 0 52 -16.5t55 -45.5z" />
    <glyph glyph-name="aacute" unicode="&#xe1;" horiz-adv-x="934" 
d="M549 90q-53 -56 -118 -85.5t-136 -29.5q-106 0 -165.5 55t-59.5 150q0 76 49 124t162 81q4 1 19 5q128 31 249 79v45q0 73 -48.5 112.5t-140.5 39.5q-65 0 -121 -32.5t-94 -92.5l-30 16q44 117 128.5 176.5t207.5 59.5q172 0 248.5 -83.5t76.5 -273.5v-307
q0 -33 12 -51.5t33 -18.5q20 0 35.5 16.5t24.5 45.5l28 -12q-17 -67 -63.5 -102.5t-118.5 -35.5q-76 0 -120 29.5t-58 89.5zM549 152v262q-123 -37 -176.5 -88.5t-53.5 -130.5q0 -55 28.5 -88t74.5 -33q30 0 62.5 20t64.5 58zM292 903l276 299q27 29 55 45.5t52 16.5
q31 0 53.5 -23t22.5 -55q0 -26 -17.5 -47.5t-66.5 -53.5l-301 -182h-74z" />
    <glyph glyph-name="acircumflex" unicode="&#xe2;" horiz-adv-x="934" 
d="M549 90q-53 -56 -118 -85.5t-136 -29.5q-106 0 -165.5 55t-59.5 150q0 76 49 124t162 81q4 1 19 5q128 31 249 79v45q0 73 -48.5 112.5t-140.5 39.5q-65 0 -121 -32.5t-94 -92.5l-30 16q44 117 128.5 176.5t207.5 59.5q172 0 248.5 -83.5t76.5 -273.5v-307
q0 -33 12 -51.5t33 -18.5q20 0 35.5 16.5t24.5 45.5l28 -12q-17 -67 -63.5 -102.5t-118.5 -35.5q-76 0 -120 29.5t-58 89.5zM549 152v262q-123 -37 -176.5 -88.5t-53.5 -130.5q0 -55 28.5 -88t74.5 -33q30 0 62.5 20t64.5 58zM173 903l227 348h134l229 -348h-74l-221 195
l-221 -195h-74z" />
    <glyph glyph-name="atilde" unicode="&#xe3;" horiz-adv-x="934" 
d="M549 90q-53 -56 -118 -85.5t-136 -29.5q-106 0 -165.5 55t-59.5 150q0 76 49 124t162 81q4 1 19 5q128 31 249 79v45q0 73 -48.5 112.5t-140.5 39.5q-65 0 -121 -32.5t-94 -92.5l-30 16q44 117 128.5 176.5t207.5 59.5q172 0 248.5 -83.5t76.5 -273.5v-307
q0 -33 12 -51.5t33 -18.5q20 0 35.5 16.5t24.5 45.5l28 -12q-17 -67 -63.5 -102.5t-118.5 -35.5q-76 0 -120 29.5t-58 89.5zM549 152v262q-123 -37 -176.5 -88.5t-53.5 -130.5q0 -55 28.5 -88t74.5 -33q30 0 62.5 20t64.5 58zM751 1221q-22 -113 -71.5 -171.5t-123.5 -58.5
q-11 0 -23.5 1.5t-27.5 4.5l-107 27q-3 1 -8 2q-36 8 -45 8q-42 0 -65 -20.5t-37 -71.5h-58q24 117 72 174.5t125 57.5q16 0 32.5 -2.5t30.5 -6.5l109 -26q12 -3 24.5 -4.5t26.5 -1.5q34 0 56 21.5t32 66.5h58z" />
    <glyph glyph-name="adieresis" unicode="&#xe4;" horiz-adv-x="934" 
d="M549 90q-53 -56 -118 -85.5t-136 -29.5q-106 0 -165.5 55t-59.5 150q0 76 49 124t162 81q4 1 19 5q128 31 249 79v45q0 73 -48.5 112.5t-140.5 39.5q-65 0 -121 -32.5t-94 -92.5l-30 16q44 117 128.5 176.5t207.5 59.5q172 0 248.5 -83.5t76.5 -273.5v-307
q0 -33 12 -51.5t33 -18.5q20 0 35.5 16.5t24.5 45.5l28 -12q-17 -67 -63.5 -102.5t-118.5 -35.5q-76 0 -120 29.5t-58 89.5zM549 152v262q-123 -37 -176.5 -88.5t-53.5 -130.5q0 -55 28.5 -88t74.5 -33q30 0 62.5 20t64.5 58zM538 1067q0 45 33 78t79 33q47 0 80 -32.5
t33 -78.5q0 -50 -32 -82.5t-81 -32.5q-48 0 -80 33t-32 82zM173 1067q0 45 34.5 78t80.5 33t78 -32.5t32 -78.5q0 -50 -31 -82.5t-79 -32.5q-49 0 -82 33t-33 82z" />
    <glyph glyph-name="aring" unicode="&#xe5;" horiz-adv-x="934" 
d="M549 152v262q-123 -37 -176.5 -88.5t-53.5 -130.5q0 -55 28.5 -88t74.5 -33q30 0 62.5 20t64.5 58zM549 90q-53 -56 -118 -85.5t-136 -29.5q-106 0 -165.5 55t-59.5 150q0 76 49 124t162 81q4 1 19 5q128 31 249 79v45q0 73 -48.5 112.5t-140.5 39.5q-65 0 -121 -32.5
t-94 -92.5l-30 16q44 117 128.5 176.5t207.5 59.5q172 0 248.5 -83.5t76.5 -273.5v-307q0 -33 12 -51.5t33 -18.5q20 0 35.5 16.5t24.5 45.5l28 -12q-17 -67 -63.5 -102.5t-118.5 -35.5q-76 0 -120 29.5t-58 89.5zM322 1106q0 -60 40.5 -101.5t100.5 -41.5q59 0 100 41.5
t41 101.5t-40.5 100.5t-100.5 40.5t-100.5 -40.5t-40.5 -100.5zM215 1106q0 104 71.5 176t176.5 72q104 0 176 -72t72 -176q0 -105 -72 -176.5t-176 -71.5q-105 0 -176.5 71.5t-71.5 176.5z" />
    <glyph glyph-name="ae" unicode="&#xe6;" horiz-adv-x="1370" 
d="M774 502h311q-1 106 -46 172.5t-113 66.5q-65 0 -106 -64.5t-46 -174.5zM1331 229q-65 -127 -163.5 -190.5t-231.5 -63.5q-95 0 -179.5 42.5t-148.5 121.5q-78 -84 -154 -124t-159 -40q-106 0 -165.5 55t-59.5 150q0 76 49 124t162 81q4 1 19 5q128 31 249 79v45
q0 72 -47.5 112t-132.5 40q-72 0 -128 -31.5t-96 -93.5l-30 16q44 114 128.5 175t200.5 61q74 0 134.5 -23t109.5 -70q56 47 120.5 70t141.5 23q157 0 259.5 -92t117.5 -246h-553v-6q0 -174 71 -268.5t202 -94.5q71 0 136 40.5t117 119.5zM549 152v262
q-123 -37 -176.5 -88.5t-53.5 -130.5q0 -55 28.5 -88t74.5 -33q30 0 62.5 20t64.5 58z" />
    <glyph glyph-name="ccedilla" unicode="&#xe7;" horiz-adv-x="930" 
d="M877 203q-64 -110 -167.5 -171t-224.5 -61q-183 0 -301 113.5t-118 288.5q0 185 127.5 302.5t330.5 117.5q66 0 144 -14.5t92 -14.5q23 0 36.5 6.5t22.5 22.5h35v-58q0 -56 2 -109t6 -104h-33q-26 97 -104.5 160t-169.5 63q-108 0 -176 -91.5t-68 -239.5
q0 -146 77.5 -238t197.5 -92q77 0 144 34.5t122 102.5zM238 -379l39 90q60 -38 119.5 -58t112.5 -20q56 0 83 22t27 69q0 42 -27 64t-81 22q-15 -1 -30 -2.5t-32 -3.5v196h66v-115q11 2 23.5 3t37.5 1q88 0 137.5 -43.5t49.5 -121.5q0 -84 -59.5 -131.5t-166.5 -47.5
q-59 0 -132 19t-167 57z" />
    <glyph glyph-name="egrave" unicode="&#xe8;" horiz-adv-x="901" 
d="M305 502h311q-1 106 -46 172.5t-113 66.5q-65 0 -106 -64.5t-46 -174.5zM862 229q-66 -128 -165 -193t-230 -65q-169 0 -286.5 118.5t-117.5 289.5q0 176 120.5 295t297.5 119q157 0 259.5 -92t117.5 -246h-553v-6q0 -174 71 -268.5t202 -94.5q71 0 136 40.5t117 119.5z
M646 903h-74l-301 182q-49 32 -66.5 53.5t-17.5 47.5q0 32 22.5 55t53.5 23q24 0 52 -16.5t55 -45.5z" />
    <glyph glyph-name="eacute" unicode="&#xe9;" horiz-adv-x="901" 
d="M305 502h311q-1 106 -46 172.5t-113 66.5q-65 0 -106 -64.5t-46 -174.5zM862 229q-66 -128 -165 -193t-230 -65q-169 0 -286.5 118.5t-117.5 289.5q0 176 120.5 295t297.5 119q157 0 259.5 -92t117.5 -246h-553v-6q0 -174 71 -268.5t202 -94.5q71 0 136 40.5t117 119.5z
M294 903l276 299q27 29 55 45.5t52 16.5q31 0 53.5 -23t22.5 -55q0 -26 -17.5 -47.5t-66.5 -53.5l-301 -182h-74z" />
    <glyph glyph-name="ecircumflex" unicode="&#xea;" horiz-adv-x="901" 
d="M305 502h311q-1 106 -46 172.5t-113 66.5q-65 0 -106 -64.5t-46 -174.5zM862 229q-66 -128 -165 -193t-230 -65q-169 0 -286.5 118.5t-117.5 289.5q0 176 120.5 295t297.5 119q157 0 259.5 -92t117.5 -246h-553v-6q0 -174 71 -268.5t202 -94.5q71 0 136 40.5t117 119.5z
M175 903l227 348h134l229 -348h-74l-221 195l-221 -195h-74z" />
    <glyph glyph-name="edieresis" unicode="&#xeb;" horiz-adv-x="901" 
d="M305 502h311q-1 106 -46 172.5t-113 66.5q-65 0 -106 -64.5t-46 -174.5zM862 229q-66 -128 -165 -193t-230 -65q-169 0 -286.5 118.5t-117.5 289.5q0 176 120.5 295t297.5 119q157 0 259.5 -92t117.5 -246h-553v-6q0 -174 71 -268.5t202 -94.5q71 0 136 40.5t117 119.5z
M540 1067q0 45 33 78t79 33q47 0 80 -32.5t33 -78.5q0 -50 -32 -82.5t-81 -32.5q-48 0 -80 33t-32 82zM175 1067q0 45 34.5 78t80.5 33t78 -32.5t32 -78.5q0 -50 -31 -82.5t-79 -32.5q-49 0 -82 33t-33 82z" />
    <glyph glyph-name="igrave" unicode="&#xec;" horiz-adv-x="528" 
d="M391 174q0 -64 25.5 -93t97.5 -50v-33q-41 2 -89.5 3t-145.5 1q-98 0 -147 -1t-91 -3v33q72 21 97.5 50t25.5 93v418q0 65 -25.5 94.5t-97.5 50.5v31q75 1 159.5 7t190.5 18v-619zM441 903h-74l-301 182q-49 32 -66.5 53.5t-17.5 47.5q0 32 22.5 55t53.5 23
q24 0 52 -16.5t55 -45.5z" />
    <glyph glyph-name="iacute" unicode="&#xed;" horiz-adv-x="528" 
d="M391 174q0 -64 25.5 -93t97.5 -50v-33q-41 2 -89.5 3t-145.5 1q-98 0 -147 -1t-91 -3v33q72 21 97.5 50t25.5 93v418q0 65 -25.5 94.5t-97.5 50.5v31q75 1 159.5 7t190.5 18v-619zM89 903l276 299q27 29 55 45.5t52 16.5q31 0 53.5 -23t22.5 -55q0 -26 -17.5 -47.5
t-66.5 -53.5l-301 -182h-74z" />
    <glyph glyph-name="icircumflex" unicode="&#xee;" horiz-adv-x="528" 
d="M391 174q0 -64 25.5 -93t97.5 -50v-33q-41 2 -89.5 3t-145.5 1q-98 0 -147 -1t-91 -3v33q72 21 97.5 50t25.5 93v418q0 65 -25.5 94.5t-97.5 50.5v31q75 1 159.5 7t190.5 18v-619zM-30 903l227 348h134l229 -348h-74l-221 195l-221 -195h-74z" />
    <glyph glyph-name="idieresis" unicode="&#xef;" horiz-adv-x="528" 
d="M391 174q0 -64 25.5 -93t97.5 -50v-33q-41 2 -89.5 3t-145.5 1q-98 0 -147 -1t-91 -3v33q72 21 97.5 50t25.5 93v418q0 65 -25.5 94.5t-97.5 50.5v31q75 1 159.5 7t190.5 18v-619zM335 1067q0 45 33 78t79 33q47 0 80 -32.5t33 -78.5q0 -50 -32 -82.5t-81 -32.5
q-48 0 -80 33t-32 82zM-30 1067q0 45 34.5 78t80.5 33t78 -32.5t32 -78.5q0 -50 -31 -82.5t-79 -32.5q-49 0 -82 33t-33 82z" />
    <glyph glyph-name="eth" unicode="&#xf0;" horiz-adv-x="1067" 
d="M715 766q-16 67 -45 126t-74 116l-274 -129l-23 32l270 129q-43 49 -88 88.5t-94 71.5l31 53q63 -31 126 -73t126 -95l227 107l21 -33l-218 -102q152 -140 228 -297t76 -332q0 -220 -122 -338.5t-347 -118.5q-213 0 -341 112.5t-128 297.5q0 184 128.5 297t340.5 113
q35 0 79.5 -6.5t100.5 -18.5zM303 381q0 -175 59.5 -269t169.5 -94q111 0 170.5 94t59.5 269t-59.5 268.5t-170.5 93.5q-110 0 -169.5 -93.5t-59.5 -268.5z" />
    <glyph glyph-name="ntilde" unicode="&#xf1;" horiz-adv-x="1081" 
d="M391 176q0 -63 25 -93.5t94 -51.5l-1 -31q-74 2 -116 3t-78 1q-69 0 -137 -1.5t-137 -4.5v33q72 21 97.5 50t25.5 93v418q0 65 -25.5 94.5t-97.5 50.5v31q75 1 159.5 7t190.5 18v-183q63 92 138.5 137.5t166.5 45.5q121 0 183.5 -70t62.5 -203v-346q0 -64 25 -93t98 -50
l-1 -33q-68 3 -136 4.5t-137 1.5q-36 0 -78 -1t-117 -3v31q69 21 94 51.5t25 93.5v344q0 71 -31 106.5t-92 35.5q-52 0 -99.5 -29t-101.5 -94v-363zM813 1221q-22 -113 -71.5 -171.5t-123.5 -58.5q-11 0 -23.5 1.5t-27.5 4.5l-107 27q-3 1 -8 2q-36 8 -45 8q-42 0 -65 -20.5
t-37 -71.5h-58q24 117 72 174.5t125 57.5q16 0 32.5 -2.5t30.5 -6.5l109 -26q12 -3 24.5 -4.5t26.5 -1.5q34 0 56 21.5t32 66.5h58z" />
    <glyph glyph-name="ograve" unicode="&#xf2;" horiz-adv-x="1067" 
d="M532 -29q-211 0 -340 113t-129 297t129 297t340 113q212 0 340.5 -113t128.5 -297t-128.5 -297t-340.5 -113zM532 18q111 0 170.5 94t59.5 269t-59.5 268.5t-170.5 93.5q-110 0 -169.5 -94t-59.5 -268q0 -175 59.5 -269t169.5 -94zM711 903h-74l-301 182
q-49 32 -66.5 53.5t-17.5 47.5q0 32 22.5 55t53.5 23q24 0 52 -16.5t55 -45.5z" />
    <glyph glyph-name="oacute" unicode="&#xf3;" horiz-adv-x="1067" 
d="M532 -29q-211 0 -340 113t-129 297t129 297t340 113q212 0 340.5 -113t128.5 -297t-128.5 -297t-340.5 -113zM532 18q111 0 170.5 94t59.5 269t-59.5 268.5t-170.5 93.5q-110 0 -169.5 -94t-59.5 -268q0 -175 59.5 -269t169.5 -94zM359 903l276 299q27 29 55 45.5
t52 16.5q31 0 53.5 -23t22.5 -55q0 -26 -17.5 -47.5t-66.5 -53.5l-301 -182h-74z" />
    <glyph glyph-name="ocircumflex" unicode="&#xf4;" horiz-adv-x="1067" 
d="M532 -29q-211 0 -340 113t-129 297t129 297t340 113q212 0 340.5 -113t128.5 -297t-128.5 -297t-340.5 -113zM532 18q111 0 170.5 94t59.5 269t-59.5 268.5t-170.5 93.5q-110 0 -169.5 -94t-59.5 -268q0 -175 59.5 -269t169.5 -94zM240 903l227 348h134l229 -348h-74
l-221 195l-221 -195h-74z" />
    <glyph glyph-name="otilde" unicode="&#xf5;" horiz-adv-x="1067" 
d="M532 -29q-211 0 -340 113t-129 297t129 297t340 113q212 0 340.5 -113t128.5 -297t-128.5 -297t-340.5 -113zM532 18q111 0 170.5 94t59.5 269t-59.5 268.5t-170.5 93.5q-110 0 -169.5 -94t-59.5 -268q0 -175 59.5 -269t169.5 -94zM818 1221q-22 -113 -71.5 -171.5
t-123.5 -58.5q-11 0 -23.5 1.5t-27.5 4.5l-107 27q-3 1 -8 2q-36 8 -45 8q-42 0 -65 -20.5t-37 -71.5h-58q24 117 72 174.5t125 57.5q16 0 32.5 -2.5t30.5 -6.5l109 -26q12 -3 24.5 -4.5t26.5 -1.5q34 0 56 21.5t32 66.5h58z" />
    <glyph glyph-name="odieresis" unicode="&#xf6;" horiz-adv-x="1067" 
d="M532 -29q-211 0 -340 113t-129 297t129 297t340 113q212 0 340.5 -113t128.5 -297t-128.5 -297t-340.5 -113zM532 18q111 0 170.5 94t59.5 269t-59.5 268.5t-170.5 93.5q-110 0 -169.5 -94t-59.5 -268q0 -175 59.5 -269t169.5 -94zM605 1067q0 45 33 78t79 33
q47 0 80 -32.5t33 -78.5q0 -50 -32 -82.5t-81 -32.5q-48 0 -80 33t-32 82zM240 1067q0 45 34.5 78t80.5 33t78 -32.5t32 -78.5q0 -50 -31 -82.5t-79 -32.5q-49 0 -82 33t-33 82z" />
    <glyph glyph-name="divide" unicode="&#xf7;" horiz-adv-x="1706" 
d="M854 367q57 0 97 -40.5t40 -97.5q0 -56 -39.5 -95.5t-97.5 -39.5t-97.5 39t-39.5 96t40.5 97.5t96.5 40.5zM1452 694v-166h-1198v166h1198zM854 1128q57 0 97 -41t40 -98q0 -56 -39.5 -95.5t-97.5 -39.5t-97.5 39t-39.5 96t40.5 98t96.5 41z" />
    <glyph glyph-name="oslash" unicode="&#xf8;" horiz-adv-x="1067" 
d="M119 -111l123 168q-88 59 -133.5 141t-45.5 183q0 184 129 297t340 113q68 0 125.5 -11t106.5 -32l94 124h90l-123 -167q87 -59 131.5 -140.5t44.5 -183.5q0 -184 -128.5 -297t-340.5 -113q-66 0 -123 11t-106 32l-94 -125h-90zM735 588l-364 -486q30 -42 70.5 -63
t93.5 -21q110 0 169.5 94t59.5 269q0 72 -7 121t-22 86zM332 174l364 485q-30 43 -70.5 63.5t-93.5 20.5q-110 0 -169.5 -93.5t-59.5 -268.5q0 -72 7 -121.5t22 -85.5z" />
    <glyph glyph-name="ugrave" unicode="&#xf9;" horiz-adv-x="1081" 
d="M702 592q0 65 -25.5 94.5t-96.5 50.5v31q75 1 159 7t191 18v-619q0 -64 25 -93t98 -50v-31q-90 -3 -178 -9t-173 -15v182q-63 -93 -139 -139t-166 -46q-120 0 -183.5 70t-63.5 203v346q0 65 -26 94.5t-97 50.5v31q75 1 159 7t191 18v-510q0 -101 28 -140t95 -39
q57 0 107.5 32.5t94.5 96.5v359zM717 903h-74l-301 182q-49 32 -66.5 53.5t-17.5 47.5q0 32 22.5 55t53.5 23q24 0 52 -16.5t55 -45.5z" />
    <glyph glyph-name="uacute" unicode="&#xfa;" horiz-adv-x="1081" 
d="M702 592q0 65 -25.5 94.5t-96.5 50.5v31q75 1 159 7t191 18v-619q0 -64 25 -93t98 -50v-31q-90 -3 -178 -9t-173 -15v182q-63 -93 -139 -139t-166 -46q-120 0 -183.5 70t-63.5 203v346q0 65 -26 94.5t-97 50.5v31q75 1 159 7t191 18v-510q0 -101 28 -140t95 -39
q57 0 107.5 32.5t94.5 96.5v359zM365 903l276 299q27 29 55 45.5t52 16.5q31 0 53.5 -23t22.5 -55q0 -26 -17.5 -47.5t-66.5 -53.5l-301 -182h-74z" />
    <glyph glyph-name="ucircumflex" unicode="&#xfb;" horiz-adv-x="1081" 
d="M702 592q0 65 -25.5 94.5t-96.5 50.5v31q75 1 159 7t191 18v-619q0 -64 25 -93t98 -50v-31q-90 -3 -178 -9t-173 -15v182q-63 -93 -139 -139t-166 -46q-120 0 -183.5 70t-63.5 203v346q0 65 -26 94.5t-97 50.5v31q75 1 159 7t191 18v-510q0 -101 28 -140t95 -39
q57 0 107.5 32.5t94.5 96.5v359zM246 903l227 348h134l229 -348h-74l-221 195l-221 -195h-74z" />
    <glyph glyph-name="udieresis" unicode="&#xfc;" horiz-adv-x="1081" 
d="M702 592q0 65 -25.5 94.5t-96.5 50.5v31q75 1 159 7t191 18v-619q0 -64 25 -93t98 -50v-31q-90 -3 -178 -9t-173 -15v182q-63 -93 -139 -139t-166 -46q-120 0 -183.5 70t-63.5 203v346q0 65 -26 94.5t-97 50.5v31q75 1 159 7t191 18v-510q0 -101 28 -140t95 -39
q57 0 107.5 32.5t94.5 96.5v359zM611 1067q0 45 33 78t79 33q47 0 80 -32.5t33 -78.5q0 -50 -32 -82.5t-81 -32.5q-48 0 -80 33t-32 82zM246 1067q0 45 34.5 78t80.5 33t78 -32.5t32 -78.5q0 -50 -31 -82.5t-79 -32.5q-49 0 -82 33t-33 82z" />
    <glyph glyph-name="yacute" unicode="&#xfd;" horiz-adv-x="834" 
d="M-6 -365q19 -3 37 -4.5t35 -1.5q96 0 167.5 53t116.5 158l68 156l-281 577q-39 82 -77 118.5t-88 43.5l-1 33q40 -1 87 -1.5t139 -0.5q90 0 134.5 0.5t82.5 1.5v-33q-34 -9 -49 -25.5t-15 -45.5q0 -13 3 -26.5t9 -27.5l170 -354l109 252q22 49 32.5 84.5t10.5 56.5
q0 37 -20.5 56.5t-69.5 30.5v32q24 -1 53.5 -1.5t89.5 -0.5q61 0 92 0.5t58 1.5v-33q-55 -15 -92 -55t-80 -141l-357 -824q-68 -159 -142.5 -221.5t-186.5 -62.5q-18 0 -37.5 1.5t-38.5 4.5zM243 903l276 299q27 29 55 45.5t52 16.5q31 0 53.5 -23t22.5 -55
q0 -26 -17.5 -47.5t-66.5 -53.5l-301 -182h-74z" />
    <glyph glyph-name="thorn" unicode="&#xfe;" horiz-adv-x="1118" 
d="M391 150q48 -47 95 -69t98 -22q106 0 164.5 84.5t58.5 239.5q0 133 -58.5 213t-154.5 80q-60 0 -111 -23.5t-92 -70.5v-432zM41 -569v32q72 22 97.5 51t25.5 93v1435q0 65 -25.5 95t-97.5 51v30q100 2 186 7.5t164 15.5v-598q73 76 146 113t149 37q169 0 268 -109.5
t99 -296.5q0 -183 -106 -297.5t-273 -114.5q-75 0 -145 28t-138 85v-481q0 -64 25.5 -93t97.5 -51v-32q-93 2 -143.5 3t-91.5 1q-78 0 -232 -4h-6z" />
    <glyph glyph-name="ydieresis" unicode="&#xff;" horiz-adv-x="834" 
d="M-6 -365q19 -3 37 -4.5t35 -1.5q96 0 167.5 53t116.5 158l68 156l-281 577q-39 82 -77 118.5t-88 43.5l-1 33q40 -1 87 -1.5t139 -0.5q90 0 134.5 0.5t82.5 1.5v-33q-34 -9 -49 -25.5t-15 -45.5q0 -13 3 -26.5t9 -27.5l170 -354l109 252q22 49 32.5 84.5t10.5 56.5
q0 37 -20.5 56.5t-69.5 30.5v32q24 -1 53.5 -1.5t89.5 -0.5q61 0 92 0.5t58 1.5v-33q-55 -15 -92 -55t-80 -141l-357 -824q-68 -159 -142.5 -221.5t-186.5 -62.5q-18 0 -37.5 1.5t-38.5 4.5zM489 1067q0 45 33 78t79 33q47 0 80 -32.5t33 -78.5q0 -50 -32 -82.5t-81 -32.5
q-48 0 -80 33t-32 82zM124 1067q0 45 34.5 78t80.5 33t78 -32.5t32 -78.5q0 -50 -31 -82.5t-79 -32.5q-49 0 -82 33t-33 82z" />
    <glyph glyph-name="Cacute" unicode="&#x106;" horiz-adv-x="1255" 
d="M1196 225q-99 -123 -229.5 -188.5t-278.5 -65.5q-108 0 -201 29t-174 88q-113 84 -174 211t-61 279q0 110 35 209.5t112 205.5q78 107 206.5 168.5t275.5 61.5q102 0 224 -39t140 -39q29 0 47.5 15.5t22.5 43.5h33v-426h-33q-29 167 -142 273t-260 106
q-166 0 -273.5 -144.5t-107.5 -373.5q0 -253 119 -401t320 -148q104 0 199.5 41.5t174.5 120.5zM522 1335l276 299q27 29 55 45.5t52 16.5q31 0 53.5 -23t22.5 -55q0 -26 -17.5 -47.5t-66.5 -53.5l-301 -182h-74z" />
    <glyph glyph-name="cacute" unicode="&#x107;" horiz-adv-x="930" 
d="M877 203q-64 -110 -167.5 -171t-224.5 -61q-183 0 -301 113.5t-118 288.5q0 185 127.5 302.5t330.5 117.5q66 0 144 -14.5t92 -14.5q23 0 36.5 6.5t22.5 22.5h35v-58q0 -56 2 -109t6 -104h-33q-26 97 -104.5 160t-169.5 63q-108 0 -176 -91.5t-68 -239.5
q0 -146 77.5 -238t197.5 -92q77 0 144 34.5t122 102.5zM325 903l276 299q27 29 55 45.5t52 16.5q31 0 53.5 -23t22.5 -55q0 -26 -17.5 -47.5t-66.5 -53.5l-301 -182h-74z" />
    <glyph glyph-name="Ccaron" unicode="&#x10c;" horiz-adv-x="1255" 
d="M1196 225q-99 -123 -229.5 -188.5t-278.5 -65.5q-108 0 -201 29t-174 88q-113 84 -174 211t-61 279q0 110 35 209.5t112 205.5q78 107 206.5 168.5t275.5 61.5q102 0 224 -39t140 -39q29 0 47.5 15.5t22.5 43.5h33v-426h-33q-29 167 -142 273t-260 106
q-166 0 -273.5 -144.5t-107.5 -373.5q0 -253 119 -401t320 -148q104 0 199.5 41.5t174.5 120.5zM403 1683h74l221 -194l221 194h74l-229 -348h-134z" />
    <glyph glyph-name="ccaron" unicode="&#x10d;" horiz-adv-x="930" 
d="M877 203q-64 -110 -167.5 -171t-224.5 -61q-183 0 -301 113.5t-118 288.5q0 185 127.5 302.5t330.5 117.5q66 0 144 -14.5t92 -14.5q23 0 36.5 6.5t22.5 22.5h35v-58q0 -56 2 -109t6 -104h-33q-26 97 -104.5 160t-169.5 63q-108 0 -176 -91.5t-68 -239.5
q0 -146 77.5 -238t197.5 -92q77 0 144 34.5t122 102.5zM206 1251h74l221 -194l221 194h74l-229 -348h-134z" />
    <glyph glyph-name="dcroat" unicode="&#x111;" horiz-adv-x="1118" 
d="M727 936h-287v61h287v45q0 69 -38.5 100t-151.5 46v31h53q106 0 196.5 5.5t167.5 16.5v-244h164v-61h-164v-762q0 -63 25 -93t96 -50v-33h-483q-252 0 -390.5 103t-138.5 290q0 175 111 285t289 110q62 0 126 -14.5t138 -46.5v211zM725 645q-53 43 -105 64.5t-100 21.5
q-97 0 -153 -83t-56 -228q0 -166 79.5 -269.5t201.5 -103.5q67 0 100 40t33 122v436z" />
    <glyph glyph-name="Gbreve" unicode="&#x11e;" horiz-adv-x="1356" 
d="M1175 854h-32q-34 128 -144.5 209.5t-248.5 81.5q-181 0 -285.5 -151t-104.5 -414q0 -259 99.5 -396t285.5 -137q97 0 137 35t40 123v117q0 80 -25.5 116.5t-87.5 46.5v33q44 -1 94 -1.5t152 -0.5q99 0 149.5 0.5t93.5 1.5v-33q-62 -11 -87 -50t-25 -132v-244
q-117 -43 -227 -65.5t-211 -22.5q-140 0 -253 37.5t-204 112.5q-103 85 -158 205.5t-55 259.5q0 159 60 287.5t175 216.5q88 66 190 99.5t214 33.5q94 0 212.5 -38t143.5 -38q30 0 47 11.5t23 35.5h32q-1 -30 -1 -64.5v-105.5v-104.5t1 -65.5zM377 1649h65
q18 -71 73.5 -102.5t162.5 -31.5t162 31.5t71 102.5h66q-22 -138 -97.5 -208.5t-201.5 -70.5t-203 71t-98 208z" />
    <glyph glyph-name="gbreve" unicode="&#x11f;" horiz-adv-x="999" 
d="M481 264q80 0 122 60.5t42 175.5q0 116 -41.5 175.5t-122.5 59.5q-80 0 -122 -59.5t-42 -175.5q0 -115 42.5 -175.5t121.5 -60.5zM340 229q-112 26 -176 97.5t-64 171.5q0 133 106 214t283 81q15 0 94 -5.5t144 -5.5q38 0 95 1.5t130 4.5v-129h-28q-45 0 -85.5 4.5
t-78.5 12.5q51 -43 74.5 -91.5t23.5 -113.5q0 -117 -90.5 -178.5t-288.5 -79.5q-11 -1 -34 -3q-164 -15 -164 -71q0 -59 211 -90q94 -14 151 -24q146 -26 225.5 -95.5t79.5 -171.5q0 -141 -136.5 -234t-352.5 -93q-187 0 -299.5 61.5t-112.5 161.5q0 77 72.5 135t206.5 86
q-117 27 -170.5 67.5t-53.5 102.5q0 73 61 120.5t177 63.5zM844 -334q0 78 -105.5 130t-269.5 52q-107 0 -169 -32t-62 -86q0 -73 108 -124.5t272 -51.5q107 0 166.5 29.5t59.5 82.5zM200 1217h65q18 -71 73.5 -102.5t162.5 -31.5t162 31.5t71 102.5h66
q-22 -138 -97.5 -208.5t-201.5 -70.5t-203 71t-98 208z" />
    <glyph glyph-name="Idotaccent" unicode="&#x130;" horiz-adv-x="721" 
d="M494 233q0 -104 35 -149t118 -51v-33q-70 3 -142 4.5t-145 1.5q-72 0 -143 -1.5t-143 -4.5v33q83 6 118 51t35 149v728q0 104 -35 149t-118 51v33q72 -3 143 -4.5t143 -1.5q73 0 145 1.5t142 4.5v-33q-83 -6 -118 -51t-35 -149v-728zM244 1499q0 48 35 83.5t82 35.5
q48 0 83.5 -35.5t35.5 -83.5q0 -51 -34 -85t-85 -34q-50 0 -83.5 34t-33.5 85z" />
    <glyph glyph-name="dotlessi" unicode="&#x131;" horiz-adv-x="528" 
d="M391 174q0 -64 25.5 -93t97.5 -50v-33q-41 2 -89.5 3t-145.5 1q-98 0 -147 -1t-91 -3v33q72 21 97.5 50t25.5 93v418q0 65 -25.5 94.5t-97.5 50.5v31q75 1 159.5 7t190.5 18v-619z" />
    <glyph glyph-name="Lslash" unicode="&#x141;" horiz-adv-x="1034" 
d="M494 233q0 -87 40.5 -122t141.5 -35q105 0 188 62t133 177l31 -8l-33 -307q-177 2 -273.5 3t-180.5 1q-152 0 -461 -4h-6v33q83 6 118 51t35 149v207l-227 -159v94l227 162v424q0 104 -35 149t-118 51v33q72 -3 143 -4.5t143 -1.5q73 0 145 1.5t142 4.5v-33
q-83 -6 -118 -51t-35 -149v-275l278 195v-95l-278 -194v-359z" />
    <glyph glyph-name="lslash" unicode="&#x142;" horiz-adv-x="528" 
d="M164 1042q0 65 -25.5 95t-97.5 51v30q85 2 172 7.5t178 15.5v-485l139 96v-78l-139 -96v-504q0 -64 25.5 -93t97.5 -50v-33q-41 2 -89.5 3t-145.5 1q-98 0 -147 -1t-91 -3v33q72 21 97.5 50t25.5 93v377l-164 -113v76l164 115v413z" />
    <glyph glyph-name="OE" unicode="&#x152;" horiz-adv-x="1919" 
d="M1008 395v408q0 190 -59.5 258.5t-209.5 68.5q-189 0 -283 -132t-94 -400q0 -267 93.5 -398.5t283.5 -131.5q150 0 209.5 68.5t59.5 258.5zM949 0q-24 -2 -50.5 -3t-79.5 -1q-358 0 -549.5 156t-191.5 446t190 445t545 155q53 0 79.5 -1t49.5 -3q71 -1 154.5 -1.5
t251.5 -0.5q167 0 250.5 0.5t154.5 1.5v-260h-35q-22 103 -78.5 144.5t-179.5 41.5h-186v-479h172q96 0 147.5 36.5t55.5 106.5h32v-362h-32q-16 74 -62 107.5t-133 33.5h-180v-325q0 -92 40.5 -127t143.5 -35q119 0 185 47.5t114 167.5l35 -4l-27 -287h-6q-280 4 -413 4
q-74 0 -157.5 -1t-239.5 -3z" />
    <glyph glyph-name="oe" unicode="&#x153;" horiz-adv-x="1583" 
d="M987 502h311q-1 105 -46 171t-113 66q-65 0 -106 -64t-46 -173zM1544 229q-64 -125 -164 -189.5t-231 -64.5q-86 0 -158 32.5t-119 90.5q-61 -62 -148.5 -94.5t-191.5 -32.5q-211 0 -340 113t-129 297t129 297t340 113q113 0 199 -31.5t143 -93.5q52 62 125.5 94.5
t163.5 32.5q157 0 259.5 -92t117.5 -246h-553q0 -175 72.5 -272t202.5 -97q71 0 136 40.5t118 119.5zM532 18q111 0 170.5 94t59.5 269t-59.5 268.5t-170.5 93.5q-110 0 -169.5 -94t-59.5 -268q0 -175 59.5 -269t169.5 -94z" />
    <glyph glyph-name="Scedilla" unicode="&#x15e;" 
d="M827 914l-34 -1q-20 102 -105 173t-184 71q-87 0 -141 -45t-54 -117q0 -108 229 -250q44 -27 69 -43q186 -121 239 -197.5t53 -180.5q0 -155 -114.5 -254t-292.5 -99q-68 0 -153.5 22.5t-105.5 22.5q-27 0 -41.5 -8t-19.5 -26h-33q1 16 3.5 76.5t2.5 97.5q0 39 -3 116
q-2 38 -3 58h33q18 -136 102.5 -213.5t214.5 -77.5q94 0 156 51t62 127q0 99 -206 231q-54 34 -83 54q-174 117 -224.5 196.5t-50.5 192.5q0 138 101.5 235t247.5 97q52 0 131.5 -18.5t105.5 -18.5q21 0 36 6.5t27 21.5h35q-1 -26 -1.5 -56.5t-0.5 -92.5t0.5 -93t1.5 -58z
M268 -379l39 90q60 -38 119.5 -58t112.5 -20q56 0 83 22t27 69q0 42 -27 64t-81 22q-15 -1 -30 -2.5t-32 -3.5v196h66v-115q11 2 23.5 3t37.5 1q88 0 137.5 -43.5t49.5 -121.5q0 -84 -59.5 -131.5t-166.5 -47.5q-59 0 -132 19t-167 57z" />
    <glyph glyph-name="scedilla" unicode="&#x15f;" horiz-adv-x="758" 
d="M104 254h33q50 -112 120.5 -171.5t152.5 -59.5q50 0 85 33.5t35 82.5q0 81 -188 166l-14 6q-145 68 -185.5 115.5t-40.5 122.5q0 106 76 175t195 69q44 0 101 -14.5t69 -14.5q16 0 29.5 7t21.5 20l33 -15q-1 -20 -1.5 -45t-0.5 -74q0 -48 0.5 -72t0.5 -44h-32
q-28 91 -87.5 146.5t-127.5 55.5q-60 0 -94.5 -24t-34.5 -66q0 -62 167 -135l5 -2q149 -64 202.5 -125t53.5 -155q0 -116 -77 -187.5t-204 -71.5q-20 0 -45 4q-6 1 -8 1q-9 0 -51.5 10t-75.5 10q-28 0 -48.5 -8.5t-35.5 -26.5l-36 14q4 91 5.5 137t1.5 87v49zM136 -379
l39 90q60 -38 119.5 -58t112.5 -20q56 0 83 22t27 69q0 42 -27 64t-81 22q-15 -1 -30 -2.5t-32 -3.5v196h66v-115q11 2 23.5 3t37.5 1q88 0 137.5 -43.5t49.5 -121.5q0 -84 -59.5 -131.5t-166.5 -47.5q-59 0 -132 19t-167 57z" />
    <glyph glyph-name="Scaron" unicode="&#x160;" 
d="M827 914l-34 -1q-20 102 -105 173t-184 71q-87 0 -141 -45t-54 -117q0 -108 229 -250q44 -27 69 -43q186 -121 239 -197.5t53 -180.5q0 -155 -114.5 -254t-292.5 -99q-68 0 -153.5 22.5t-105.5 22.5q-27 0 -41.5 -8t-19.5 -26h-33q1 16 3.5 76.5t2.5 97.5q0 39 -3 116
q-2 38 -3 58h33q18 -136 102.5 -213.5t214.5 -77.5q94 0 156 51t62 127q0 99 -206 231q-54 34 -83 54q-174 117 -224.5 196.5t-50.5 192.5q0 138 101.5 235t247.5 97q52 0 131.5 -18.5t105.5 -18.5q21 0 36 6.5t27 21.5h35q-1 -26 -1.5 -56.5t-0.5 -92.5t0.5 -93t1.5 -58z
M217 1683h74l221 -194l221 194h74l-229 -348h-134z" />
    <glyph glyph-name="scaron" unicode="&#x161;" horiz-adv-x="758" 
d="M104 254h33q50 -112 120.5 -171.5t152.5 -59.5q50 0 85 33.5t35 82.5q0 81 -188 166l-14 6q-145 68 -185.5 115.5t-40.5 122.5q0 106 76 175t195 69q44 0 101 -14.5t69 -14.5q16 0 29.5 7t21.5 20l33 -15q-1 -20 -1.5 -45t-0.5 -74q0 -48 0.5 -72t0.5 -44h-32
q-28 91 -87.5 146.5t-127.5 55.5q-60 0 -94.5 -24t-34.5 -66q0 -62 167 -135l5 -2q149 -64 202.5 -125t53.5 -155q0 -116 -77 -187.5t-204 -71.5q-20 0 -45 4q-6 1 -8 1q-9 0 -51.5 10t-75.5 10q-28 0 -48.5 -8.5t-35.5 -26.5l-36 14q4 91 5.5 137t1.5 87v49zM85 1251h74
l221 -194l221 194h74l-229 -348h-134z" />
    <glyph glyph-name="Ydieresis" unicode="&#x178;" horiz-adv-x="1090" 
d="M682 233q0 -104 35 -149t119 -51l-1 -33q-69 3 -141 4.5t-145 1.5q-72 0 -143.5 -1.5t-142.5 -4.5l-1 33q84 6 119 51t35 149v347l-312 456q-40 61 -82 91.5t-89 33.5v33q68 -3 136 -4.5t136 -1.5t134 1.5t130 3.5v-32q-43 -8 -62.5 -22.5t-19.5 -38.5q0 -15 10 -38
t29 -52l209 -310l159 225q8 11 20 28q73 101 73 128q0 36 -26 55.5t-78 24.5l-1 33h7q120 -4 176 -4q38 0 80.5 1t117.5 3v-33q-57 -4 -100 -31t-88 -90l-293 -407v-400zM615 1499q0 45 33 78t79 33q47 0 80 -32.5t33 -78.5q0 -50 -32 -82.5t-81 -32.5q-48 0 -80 33t-32 82z
M250 1499q0 45 34.5 78t80.5 33t78 -32.5t32 -78.5q0 -50 -31 -82.5t-79 -32.5q-49 0 -82 33t-33 82z" />
    <glyph glyph-name="Zcaron" unicode="&#x17d;" horiz-adv-x="1251" 
d="M39 0v39l819 1089h-405q-144 0 -218.5 -51t-107.5 -170h-33l31 287q90 -1 197.5 -1.5t324.5 -0.5q221 0 333 0.5t207 1.5l1 -35l-807 -1083h420q158 0 247.5 54.5t147.5 184.5h33l-50 -315q-211 2 -329 3t-221 1q-185 0 -572 -4h-18zM332 1683h74l221 -194l221 194h74
l-229 -348h-134z" />
    <glyph glyph-name="zcaron" unicode="&#x17e;" horiz-adv-x="985" 
d="M72 0v33l530 688h-147q-102 0 -187 -44t-143 -126h-33l17 217h772v-33l-508 -682h135q152 0 238 45.5t124 145.5h33l-18 -244h-813zM200 1251h74l221 -194l221 194h74l-229 -348h-134z" />
    <glyph glyph-name="florin" unicode="&#x192;" horiz-adv-x="1020" 
d="M240 694h178q47 293 119.5 399.5t212.5 106.5q37 0 82.5 -10t103.5 -31l-66 -194l-32 6q0 5 1 15.5t1 14.5q0 67 -22 106.5t-58 39.5q-75 0 -123 -397q-4 -37 -6 -55l155 -1v-76h-163q-66 -522 -111.5 -732.5t-101.5 -305.5q-49 -80 -117 -119t-160 -39q-46 0 -93 10
t-91 29l69 211l33 -8q13 -94 38.5 -139t66.5 -45q98 0 179 636q40 311 68 502h-163v76z" />
    <glyph glyph-name="circumflex" unicode="&#x2c6;" 
d="M217 903l227 348h134l229 -348h-74l-221 195l-221 -195h-74z" />
    <glyph glyph-name="caron" unicode="&#x2c7;" 
d="M217 1251h74l221 -194l221 194h74l-229 -348h-134z" />
    <glyph glyph-name="breve" unicode="&#x2d8;" 
d="M211 1217h65q18 -71 73.5 -102.5t162.5 -31.5t162 31.5t71 102.5h66q-22 -138 -97.5 -208.5t-201.5 -70.5t-203 71t-98 208z" />
    <glyph glyph-name="dotaccent" unicode="&#x2d9;" 
d="M395 1067q0 48 35 83.5t82 35.5q48 0 83.5 -35.5t35.5 -83.5q0 -51 -34 -85t-85 -34q-50 0 -83.5 34t-33.5 85z" />
    <glyph glyph-name="ring" unicode="&#x2da;" 
d="M371 1130q0 -59 40.5 -100t100.5 -41t100.5 41t40.5 100q0 61 -40.5 102.5t-100.5 41.5t-100.5 -41.5t-40.5 -102.5zM264 1133q0 104 71.5 174.5t176.5 70.5t176.5 -70.5t71.5 -174.5q0 -105 -72 -177.5t-176 -72.5t-176 72.5t-72 177.5z" />
    <glyph glyph-name="ogonek" unicode="&#x2db;" 
d="M653 35q-83 -65 -128.5 -131.5t-45.5 -124.5q0 -59 24.5 -92t67.5 -33q37 0 66 17t57 55l29 -17q-36 -75 -93 -115t-126 -40q-72 0 -115 41t-43 110q0 84 64 165t196 165h47z" />
    <glyph glyph-name="tilde" unicode="&#x2dc;" 
d="M795 1221q-22 -113 -71.5 -171.5t-123.5 -58.5q-11 0 -23.5 1.5t-27.5 4.5l-107 27q-3 1 -8 2q-36 8 -45 8q-42 0 -65 -20.5t-37 -71.5h-58q24 117 72 174.5t125 57.5q16 0 32.5 -2.5t30.5 -6.5l109 -26q12 -3 24.5 -4.5t26.5 -1.5q34 0 56 21.5t32 66.5h58z" />
    <glyph glyph-name="hungarumlaut" unicode="&#x2dd;" 
d="M567 903l174 283q24 39 47.5 57.5t51.5 18.5q31 0 51 -20.5t20 -53.5q0 -22 -15.5 -45.5t-47.5 -50.5l-221 -189h-60zM322 903l133 275q20 43 43.5 64.5t52.5 21.5q28 0 50 -22.5t22 -51.5q0 -18 -10.5 -37t-43.5 -53l-186 -197h-61z" />
    <glyph glyph-name="Omega" unicode="&#x3a9;" horiz-adv-x="1569" 
d="M1122 221h301l54 168h67l-117 -389h-516q111 218 167.5 434.5t56.5 423.5q0 278 -87.5 417.5t-261.5 139.5t-262 -139t-88 -416q0 -205 57 -421.5t169 -438.5h-519l-116 389h67l53 -168h302v23q-158 127 -240 283.5t-82 330.5q0 277 188 458t471 181q284 0 471 -180.5
t187 -458.5q0 -176 -82 -332t-240 -282v-23z" />
    <glyph glyph-name="pi" unicode="&#x3c0;" horiz-adv-x="1427" 
d="M1352 653h-342q-12 -73 -17.5 -147t-5.5 -152v-147q0 -129 -33 -189.5t-102 -60.5q-49 0 -74.5 30t-25.5 87q0 64 74.5 253.5t107.5 325.5h-381q-12 -68 -18.5 -141t-6.5 -152q0 -4 1 -21q1 -67 1 -130q0 -129 -33.5 -190.5t-103.5 -61.5q-48 0 -73 29t-25 86
q0 65 75 254.5t107 326.5h-139q-5 0 -15.5 -1t-15.5 -1q-106 0 -153 -36.5t-68 -135.5h-59q41 227 128.5 316.5t266.5 89.5h981z" />
    <glyph glyph-name="endash" unicode="&#x2013;" 
d="M0 305v152h1024v-152h-1024z" />
    <glyph glyph-name="emdash" unicode="&#x2014;" horiz-adv-x="2048" 
d="M0 457h2048v-152h-2048v152z" />
    <glyph glyph-name="quoteleft" unicode="&#x2018;" horiz-adv-x="510" 
d="M416 1192q-84 -17 -137.5 -80t-53.5 -145q0 -29 10 -47t29 -23q6 -1 19 -4q139 -29 139 -131q0 -63 -39 -101t-102 -38q-89 0 -145 64t-56 167q0 147 94 251t242 118v-31z" />
    <glyph glyph-name="quoteright" unicode="&#x2019;" horiz-adv-x="510" 
d="M94 653q84 17 137.5 81t53.5 147q0 28 -10 45t-29 22l-15 3q-143 30 -143 134q0 63 39 101.5t102 38.5q89 0 145 -65t56 -169q0 -147 -94 -251t-242 -117v30z" />
    <glyph glyph-name="quotesinglbase" unicode="&#x201a;" horiz-adv-x="510" 
d="M94 -305q84 16 137.5 79.5t53.5 145.5q0 29 -10.5 47t-29.5 23q-5 1 -18 4q-139 28 -139 131q0 63 39 101t102 38q89 0 145 -65t56 -168q0 -148 -94 -251.5t-242 -117.5v33z" />
    <glyph glyph-name="quotedblleft" unicode="&#x201c;" horiz-adv-x="963" 
d="M868 1192q-84 -17 -137 -80t-53 -145q0 -29 10 -47t29 -23q6 -1 19 -4q138 -29 138 -131q0 -63 -38.5 -101t-102.5 -38q-88 0 -144.5 64t-56.5 167q0 147 94.5 251t241.5 118v-31zM416 1192q-84 -17 -137.5 -80t-53.5 -145q0 -29 10 -47t29 -23q6 -1 19 -4
q139 -29 139 -131q0 -63 -39 -101t-102 -38q-89 0 -145 64t-56 167q0 147 94 251t242 118v-31z" />
    <glyph glyph-name="quotedblright" unicode="&#x201d;" horiz-adv-x="963" 
d="M547 653q83 17 136.5 81t53.5 147q0 28 -9.5 45t-28.5 22l-15 3q-143 30 -143 134q0 63 39 101.5t102 38.5q88 0 144.5 -65t56.5 -169q0 -147 -94 -251t-242 -117v30zM94 653q84 17 137.5 81t53.5 147q0 28 -10 45t-29 22l-15 3q-143 30 -143 134q0 63 39 101.5t102 38.5
q89 0 145 -65t56 -169q0 -147 -94 -251t-242 -117v30z" />
    <glyph glyph-name="quotedblbase" unicode="&#x201e;" horiz-adv-x="963" 
d="M547 -305q84 16 137 79.5t53 145.5q0 29 -10 47t-29 23q-6 1 -19 4q-138 28 -138 131q0 63 39 101t102 38q88 0 144.5 -65t56.5 -168q0 -148 -94 -251.5t-242 -117.5v33zM94 -305q84 16 137.5 79.5t53.5 145.5q0 29 -10.5 47t-29.5 23q-5 1 -18 4q-139 28 -139 131
q0 63 39 101t102 38q89 0 145 -65t56 -168q0 -148 -94 -251.5t-242 -117.5v33z" />
    <glyph glyph-name="dagger" unicode="&#x2020;" 
d="M486 -512q-6 254 -31 463.5t-72 394.5q51 84 76.5 169.5t25.5 172.5v21q-67 -3 -158.5 -45.5t-129.5 -42.5q-53 0 -84 30t-31 80q0 49 34 80t87 31q41 0 131.5 -40.5t150.5 -41.5v22q0 96 -44 204t-44 128q0 49 32 79t83 30q53 0 86 -30.5t33 -78.5q0 -9 -45 -121
t-45 -221v-12h4q65 0 154 41t126 41q56 0 86.5 -28.5t30.5 -80.5q0 -54 -30.5 -83t-86.5 -29q-40 0 -129.5 41t-156.5 46q6 -116 32.5 -206t73.5 -156q-47 -164 -72 -380t-27 -478h-60z" />
    <glyph glyph-name="daggerdbl" unicode="&#x2021;" 
d="M383 346q51 84 76.5 169.5t25.5 172.5v21q-67 -3 -158.5 -45.5t-129.5 -42.5q-53 0 -84 29t-31 79q0 49 33.5 81t85.5 32q41 0 132.5 -40.5t151.5 -41.5v22q0 96 -44 203t-44 127q0 49 32 80t83 31q53 0 85 -30.5t32 -78.5q0 -9 -44 -121t-44 -221v-12h4q65 0 154 41
t126 41q55 0 85 -29t30 -82q0 -54 -30 -83.5t-85 -29.5q-40 0 -129.5 41.5t-156.5 46.5q6 -117 32 -206t72 -154q-52 -76 -78 -165.5t-26 -188.5v-10q67 2 158.5 45t129.5 43q53 0 83 -29t30 -80q0 -49 -33.5 -81t-85.5 -32q-41 0 -131.5 40.5t-150.5 41.5v-22
q0 -96 44 -203t44 -127q0 -49 -32 -79.5t-83 -30.5q-53 0 -86 30t-33 78q0 9 45 121t45 221v12q-66 0 -156.5 -40t-127.5 -40q-56 0 -86.5 28.5t-30.5 80.5q0 54 30.5 83.5t86.5 29.5q40 0 129.5 -41.5t156.5 -46.5q-6 115 -31 204t-71 158z" />
    <glyph glyph-name="bullet" unicode="&#x2022;" horiz-adv-x="1208" 
d="M307 762q0 123 87 209t210 86q122 0 208.5 -86.5t86.5 -208.5t-87.5 -209.5t-209.5 -87.5q-123 0 -209 87t-86 210z" />
    <glyph glyph-name="ellipsis" unicode="&#x2026;" horiz-adv-x="2048" 
d="M201 111q0 57 40.5 98t98.5 41t98.5 -40.5t40.5 -98.5q0 -57 -41 -98.5t-98 -41.5t-98 41.5t-41 98.5zM883 111q0 57 40.5 98t98.5 41t98.5 -40.5t40.5 -98.5q0 -57 -41 -98.5t-98 -41.5t-98 41.5t-41 98.5zM1567 111q0 57 40.5 98t98.5 41t98.5 -40.5t40.5 -98.5
q0 -57 -41 -98.5t-98 -41.5t-98 41.5t-41 98.5z" />
    <glyph glyph-name="perthousand" unicode="&#x2030;" horiz-adv-x="2413" 
d="M2032 43q83 0 122 71.5t39 223.5q0 153 -39 224t-122 71q-84 0 -123 -71t-39 -224q0 -152 39 -223.5t123 -71.5zM2032 -25q-151 0 -245.5 101t-94.5 262q0 162 93.5 261t246.5 99q152 0 247 -99t95 -261q0 -161 -95 -262t-247 -101zM1243 43q83 0 122.5 71.5t39.5 223.5
q0 153 -39 224t-123 71t-123 -71t-39 -224q0 -152 39.5 -223.5t122.5 -71.5zM1243 -25q-150 0 -245 101t-95 262q0 162 94 261t246 99q153 0 247.5 -99t94.5 -261q0 -161 -95 -262t-247 -101zM1167 1200h115l-827 -1225h-115zM381 477q-151 0 -245.5 100t-94.5 261
q0 162 94 262t246 100t247 -100t95 -262t-95 -261.5t-247 -99.5zM381 545q83 0 122.5 70.5t39.5 222.5q0 153 -39 224t-123 71t-123 -71t-39 -224q0 -152 39.5 -222.5t122.5 -70.5z" />
    <glyph glyph-name="guilsinglleft" unicode="&#x2039;" horiz-adv-x="555" 
d="M502 713q-19 -48 -55 -114.5t-119 -205.5l20 -34q126 -209 154 -285l-41 -27q-60 63 -156 148t-235 198q152 126 246.5 210t144.5 136z" />
    <glyph glyph-name="guilsinglright" unicode="&#x203a;" horiz-adv-x="555" 
d="M53 74q20 50 56.5 118.5t115.5 200.5q-91 152 -123 213t-49 107l41 26q51 -55 147 -140t244 -206q-152 -126 -246.5 -210t-144.5 -136z" />
    <glyph glyph-name="franc" unicode="&#x20a3;" horiz-adv-x="1821" 
d="M974 1194l1 -260h-33q-20 96 -76 141t-153 45h-219v-479h176q95 0 146 36.5t54 106.5h33v-362h-33q-15 74 -61 107.5t-133 33.5h-182v-330q0 -104 35 -149t118 -51v-33h-12q-192 4 -285 4q-53 0 -113 -1t-163 -3v33q83 6 118 51t35 149v728q0 104 -35 149t-118 51v33
q77 -1 168.5 -1.5t275.5 -0.5q188 0 282 0.5t174 1.5zM1425 575q68 115 129.5 166.5t130.5 51.5q36 0 69 -14t60 -40q-18 -59 -31.5 -113t-21.5 -106q-47 47 -88.5 68.5t-85.5 21.5q-47 0 -83.5 -24t-78.5 -84v-326q0 -63 25 -93.5t94 -51.5l-1 -31q-74 2 -116 3t-78 1
q-69 0 -137 -1.5t-137 -4.5v33q72 21 97.5 50t25.5 93v418q0 65 -25.5 94.5t-97.5 50.5v31q75 1 159.5 7t190.5 18v-218z" />
    <glyph glyph-name="trademark" unicode="&#x2122;" horiz-adv-x="1683" 
d="M969 1448l135 -381l137 381h189v-27l-28 -2q-19 -3 -29.5 -16.5t-10.5 -36.5v-375q0 -23 10.5 -36.5t30.5 -16.5l27 -4v-29h-246v29l30 4q20 2 29.5 15.5t9.5 37.5v375l-163 -463h-27l-170 469v-381q0 -24 10 -38t29 -15l35 -4v-29h-197v29l33 4q20 2 30.5 15t10.5 36
v373q0 23 -11 37t-30 16l-33 2v31h199zM692 1448l10 -188h-30q-8 80 -40 116.5t-93 36.5h-11v-422q0 -23 10.5 -37t28.5 -16l31 -4v-29h-260v29l32 4q19 2 28.5 15.5t9.5 37.5v422h-15q-59 0 -91 -37.5t-40 -115.5h-29l11 188h448z" />
    <glyph glyph-name="partialdiff" unicode="&#x2202;" horiz-adv-x="1075" 
d="M758 639q17 103 26 186.5t9 147.5q0 120 -29 174.5t-92 54.5q-62 0 -147 -58.5t-122 -58.5t-64.5 26t-27.5 60q0 66 79 115t200 49q176 0 287.5 -159t111.5 -422q0 -338 -150 -558.5t-376 -220.5q-161 0 -266 112t-105 286q0 193 113 322.5t278 129.5q101 0 167.5 -45
t107.5 -141zM705 504q0 116 -41 178.5t-117 62.5q-105 0 -174.5 -131.5t-69.5 -337.5q0 -116 40.5 -177.5t117.5 -61.5q105 0 174.5 132.5t69.5 334.5z" />
    <glyph glyph-name="uni2206" unicode="&#x2206;" horiz-adv-x="1350" 
d="M958 250l-380 899l-385 -899h765zM705 1497l641 -1497h-1340l651 1497h48z" />
    <glyph glyph-name="product" unicode="&#x220f;" horiz-adv-x="1673" 
d="M51 1473h1569v-78h-190v-1710h190v-78h-643v78h184v1710h-653v-1710h186v-78h-643v78h189v1710h-189v78z" />
    <glyph glyph-name="summation" unicode="&#x2211;" horiz-adv-x="1499" 
d="M18 1473h1199l120 -394h-82l-81 238q-15 43 -50.5 60.5t-130.5 17.5h-628l745 -809v-41l-784 -709h893q47 0 64.5 13.5t29.5 50.5l69 229h84l-159 -522h-1289v55l875 787l-875 964v60z" />
    <glyph glyph-name="minus" unicode="&#x2212;" horiz-adv-x="1706" 
d="M1452 696v-170h-1198v170h1198z" />
    <glyph glyph-name="uni2215" unicode="&#x2215;" horiz-adv-x="342" 
d="M565 1200h117l-905 -1225h-119z" />
    <glyph glyph-name="uni2219" unicode="&#x2219;" horiz-adv-x="510" 
d="M115 610q0 58 40.5 99t98.5 41t98.5 -40.5t40.5 -99.5q0 -57 -41 -98t-98 -41t-98 41t-41 98z" />
    <glyph glyph-name="radical" unicode="&#x221a;" horiz-adv-x="1323" 
d="M1325 1675v-110h-108l-594 -1606h-82l-316 872l-131 -49l-28 95l305 108l247 -688l510 1378h197z" />
    <glyph glyph-name="infinity" unicode="&#x221e;" horiz-adv-x="1706" 
d="M928 559q45 -81 109.5 -122.5t146.5 -41.5q97 0 159 61.5t62 157.5q0 95 -57 158.5t-142 63.5q-78 0 -142 -63.5t-136 -213.5zM780 662q-46 81 -111 123t-145 42q-98 0 -159.5 -62t-61.5 -159q0 -94 56.5 -156.5t140.5 -62.5q80 0 144.5 62.5t135.5 212.5zM844 750
q71 139 149.5 200.5t184.5 61.5q127 0 222 -116t95 -284q0 -178 -84.5 -288.5t-220.5 -110.5q-92 0 -166.5 57.5t-161.5 200.5q-71 -135 -148.5 -197.5t-172.5 -62.5q-137 0 -232.5 114.5t-95.5 284.5q0 179 85 289.5t220 110.5q93 0 168.5 -60t157.5 -200z" />
    <glyph glyph-name="integral" unicode="&#x222b;" horiz-adv-x="1120" 
d="M324 -258q106 0 122 692q2 81 3 123q13 538 113 766.5t312 228.5q87 0 143 -45.5t56 -111.5q0 -61 -34 -95t-95 -34q-45 0 -74.5 22.5t-40.5 65.5q-4 17 -6 45q-3 40 -26 41q-101 0 -119 -615q-5 -161 -8 -249q-10 -280 -30.5 -427t-59.5 -245q-55 -136 -139.5 -205.5
t-194.5 -69.5q-87 0 -142 44t-55 112q0 63 35.5 97t99.5 34q39 0 66 -18t41 -54q6 -16 9 -59t24 -43z" />
    <glyph glyph-name="approxequal" unicode="&#x2248;" horiz-adv-x="1706" 
d="M1530 406q-107 -73 -200 -106.5t-189 -33.5q-89 0 -279.5 66.5t-298.5 66.5q-84 0 -173.5 -36t-211.5 -121v184q112 75 206.5 110t180.5 35q118 0 309 -67.5t277 -67.5q83 0 172 36.5t207 119.5v-186zM1530 795q-109 -75 -201.5 -108.5t-187.5 -33.5q-88 0 -278.5 67.5
t-299.5 67.5q-82 0 -170 -35t-215 -122v184q109 73 205 109.5t182 36.5q120 0 310 -68t268 -68q92 0 181 35t206 119v-184z" />
    <glyph glyph-name="notequal" unicode="&#x2260;" horiz-adv-x="1706" 
d="M1327 1112l-170 -215h295v-162h-403l-197 -250h600v-161h-707l-249 -314l-123 99l170 215h-289v161h393l199 250h-592v162h700l250 315z" />
    <glyph glyph-name="lessequal" unicode="&#x2264;" horiz-adv-x="1706" 
d="M1446 178v-166h-1186v166h1186zM1446 1047l-889 -287l889 -287v-176l-1186 389v145l1186 392v-176z" />
    <glyph glyph-name="greaterequal" unicode="&#x2265;" horiz-adv-x="1706" 
d="M1448 178v-166h-1188v166h1188zM1446 831v-145l-1186 -389v176l891 287l-891 287v176z" />
    <glyph glyph-name="lozenge" unicode="&#x25ca;" horiz-adv-x="1012" 
d="M506 1409l-385 -817l385 -825l385 825zM506 1653l500 -1061l-500 -1069l-500 1069z" />
    <glyph glyph-name="uniF000" unicode="&#xf000;" horiz-adv-x="1618" 
d="M836 1216q-1 6 -1.5 14t-0.5 23q0 124 95 229.5t236 131.5q1 -10 1.5 -23t0.5 -39q0 -131 -103.5 -234.5t-203.5 -103.5h-8q-3 0 -7.5 1t-8.5 1zM1505 403q-114 -247 -205 -342.5t-204 -95.5q-50 0 -131.5 33t-122.5 33q-45 0 -131 -33t-127 -33q-64 0 -128.5 44
t-129.5 132q-102 140 -157.5 295.5t-55.5 300.5q0 219 125 356.5t323 137.5q68 0 155 -34t124 -34q34 0 121.5 35t152.5 35q110 0 198 -40t161 -124q-102 -65 -151.5 -145.5t-49.5 -182.5q0 -113 60 -200t173 -138z" />
    <glyph glyph-name="uniF001" unicode="&#xf001;" horiz-adv-x="1053" 
d="M31 0v31q69 21 94 51.5t25 93.5v545h-105v47q52 4 76.5 29.5t38.5 107.5q27 165 135 251.5t285 86.5q92 0 174.5 -22t150.5 -66q-39 -39 -79.5 -85t-90.5 -107l-36 21q1 8 2 18.5t1 31.5q0 75 -41.5 116.5t-115.5 41.5q-93 0 -130.5 -43.5t-37.5 -157.5v-205h188
q67 0 153.5 6.5t196.5 18.5v-637q0 -64 25.5 -93t97.5 -50v-33q-42 2 -90.5 3t-144.5 1q-93 0 -138.5 -1t-84.5 -3v33q63 21 85.5 50t22.5 93v418q0 72 -30.5 100.5t-108.5 28.5h-172v-547q0 -66 22.5 -94.5t85.5 -48.5v-33q-64 3 -129 4.5t-133 1.5q-61 0 -186 -4h-6z" />
    <glyph glyph-name="uniF001" unicode="&#xfb01;" horiz-adv-x="1053" 
d="M31 0v31q69 21 94 51.5t25 93.5v545h-105v47q52 4 76.5 29.5t38.5 107.5q27 165 135 251.5t285 86.5q92 0 174.5 -22t150.5 -66q-39 -39 -79.5 -85t-90.5 -107l-36 21q1 8 2 18.5t1 31.5q0 75 -41.5 116.5t-115.5 41.5q-93 0 -130.5 -43.5t-37.5 -157.5v-205h188
q67 0 153.5 6.5t196.5 18.5v-637q0 -64 25.5 -93t97.5 -50v-33q-42 2 -90.5 3t-144.5 1q-93 0 -138.5 -1t-84.5 -3v33q63 21 85.5 50t22.5 93v418q0 72 -30.5 100.5t-108.5 28.5h-172v-547q0 -66 22.5 -94.5t85.5 -48.5v-33q-64 3 -129 4.5t-133 1.5q-61 0 -186 -4h-6z" />
    <glyph glyph-name="uniF002" unicode="&#xf002;" horiz-adv-x="1055" 
d="M31 0v31q69 21 94 51.5t25 93.5v545h-105v47q52 4 76.5 29.5t38.5 107.5q27 157 131.5 247.5t259.5 90.5q68 0 130.5 -22.5t113.5 -65.5l120 86v-1067q0 -64 25.5 -93t97.5 -50v-33q-42 2 -90.5 3t-144.5 1q-93 0 -138.5 -1t-84.5 -3v33q63 21 85.5 50t22.5 93v830
q0 108 -31.5 148t-111.5 40q-93 0 -130.5 -43.5t-37.5 -157.5v-205h172v-65h-172v-547q0 -66 22.5 -94.5t85.5 -48.5v-33q-64 3 -129 4.5t-133 1.5q-61 0 -186 -4h-6z" />
    <glyph glyph-name="uniF002" unicode="&#xfb02;" horiz-adv-x="1055" 
d="M31 0v31q69 21 94 51.5t25 93.5v545h-105v47q52 4 76.5 29.5t38.5 107.5q27 157 131.5 247.5t259.5 90.5q68 0 130.5 -22.5t113.5 -65.5l120 86v-1067q0 -64 25.5 -93t97.5 -50v-33q-42 2 -90.5 3t-144.5 1q-93 0 -138.5 -1t-84.5 -3v33q63 21 85.5 50t22.5 93v830
q0 108 -31.5 148t-111.5 40q-93 0 -130.5 -43.5t-37.5 -157.5v-205h172v-65h-172v-547q0 -66 22.5 -94.5t85.5 -48.5v-33q-64 3 -129 4.5t-133 1.5q-61 0 -186 -4h-6z" />
  </font>
</defs>
</svg>
